M48
;DRILL file {KiCad 4.0.6} date 04/12/19 16:58:52
;FORMAT={-:-/ absolute / metric / decimal}
FMAT,2
METRIC,TZ
T1C0.762
T2C0.800
T3C0.810
T4C0.900
T5C1.000
T6C2.300
%
G90
G05
M71
T1
X119.888Y-129.286
X122.428Y-129.286
X124.968Y-129.286
X127.508Y-129.286
X130.048Y-110.236
X130.048Y-112.776
X130.048Y-129.286
T2
X106.68Y-88.392
X106.68Y-98.552
X106.68Y-118.872
X106.68Y-129.032
X111.76Y-90.932
X111.76Y-93.472
X111.76Y-96.012
X111.76Y-98.552
X111.76Y-101.092
X111.76Y-103.632
X111.76Y-106.172
X111.76Y-108.712
X111.76Y-111.252
X111.76Y-113.792
X111.76Y-116.332
X111.76Y-118.872
X111.76Y-121.412
X111.76Y-123.952
X111.76Y-126.492
X117.348Y-101.346
X117.348Y-103.886
X117.348Y-106.426
X117.348Y-108.966
X117.348Y-111.506
X117.348Y-114.046
X117.348Y-116.586
X117.348Y-119.126
X117.348Y-121.666
X117.348Y-124.206
X117.348Y-126.746
X117.348Y-129.286
X127.Y-90.932
X127.Y-93.472
X127.Y-96.012
X127.Y-98.552
X127.Y-101.092
X127.Y-103.632
X127.Y-106.172
X127.Y-108.712
X127.Y-111.252
X127.Y-113.792
X127.Y-116.332
X127.Y-118.872
X127.Y-121.412
X127.Y-123.952
X127.Y-126.492
X132.588Y-101.346
X132.588Y-103.886
X132.588Y-106.426
X132.588Y-108.966
X132.588Y-111.506
X132.588Y-114.046
X132.588Y-116.586
X132.588Y-119.126
X132.588Y-121.666
X132.588Y-124.206
X132.588Y-126.746
X132.588Y-129.286
X139.7Y-87.884
X139.7Y-90.424
X139.7Y-92.964
X139.7Y-95.504
X139.7Y-98.044
X139.7Y-100.584
X139.7Y-103.124
X139.7Y-105.664
X139.7Y-108.204
X139.7Y-110.744
X147.32Y-87.884
X147.32Y-90.424
X147.32Y-92.964
X147.32Y-95.504
X147.32Y-98.044
X147.32Y-100.584
X147.32Y-103.124
X147.32Y-105.664
X147.32Y-108.204
X147.32Y-110.744
X157.48Y-87.884
X157.48Y-90.424
X157.48Y-92.964
X157.48Y-95.504
X157.48Y-98.044
X157.48Y-100.584
X157.48Y-103.124
X157.48Y-105.664
X157.48Y-108.204
X165.1Y-87.884
X165.1Y-90.424
X165.1Y-92.964
X165.1Y-95.504
X165.1Y-98.044
X165.1Y-100.584
X165.1Y-103.124
X165.1Y-105.664
X165.1Y-108.204
T3
X153.162Y-125.762
X153.162Y-127.762
X155.702Y-125.762
X155.702Y-127.762
T4
X107.188Y-103.632
X107.188Y-106.172
X107.188Y-111.252
X107.188Y-113.792
T5
X137.922Y-129.032
X140.462Y-129.032
X143.002Y-129.032
X164.592Y-126.492
X164.592Y-129.032
T6
X148.432Y-130.462
X160.432Y-130.462
T0
M30
