G04 #@! TF.FileFunction,Copper,L1,Top,Signal*
%FSLAX46Y46*%
G04 Gerber Fmt 4.6, Leading zero omitted, Abs format (unit mm)*
G04 Created by KiCad (PCBNEW 4.0.6) date 04/12/19 16:58:46*
%MOMM*%
%LPD*%
G01*
G04 APERTURE LIST*
%ADD10C,0.100000*%
%ADD11C,1.520000*%
%ADD12C,2.700000*%
%ADD13R,1.600000X1.600000*%
%ADD14O,1.600000X1.600000*%
%ADD15R,1.800000X1.800000*%
%ADD16C,1.800000*%
%ADD17C,1.600000*%
%ADD18R,1.700000X1.700000*%
%ADD19O,1.700000X1.700000*%
%ADD20O,2.000000X1.200000*%
%ADD21C,1.524000*%
%ADD22C,0.250000*%
%ADD23C,0.254000*%
G04 APERTURE END LIST*
D10*
D11*
X153162000Y-125762000D03*
X155702000Y-125762000D03*
X155702000Y-127762000D03*
X153162000Y-127762000D03*
D12*
X148432000Y-130462000D03*
X160432000Y-130462000D03*
D13*
X111760000Y-90932000D03*
D14*
X127000000Y-123952000D03*
X111760000Y-93472000D03*
X127000000Y-121412000D03*
X111760000Y-96012000D03*
X127000000Y-118872000D03*
X111760000Y-98552000D03*
X127000000Y-116332000D03*
X111760000Y-101092000D03*
X127000000Y-113792000D03*
X111760000Y-103632000D03*
X127000000Y-111252000D03*
X111760000Y-106172000D03*
X127000000Y-108712000D03*
X111760000Y-108712000D03*
X127000000Y-106172000D03*
X111760000Y-111252000D03*
X127000000Y-103632000D03*
X111760000Y-113792000D03*
X127000000Y-101092000D03*
X111760000Y-116332000D03*
X127000000Y-98552000D03*
X111760000Y-118872000D03*
X127000000Y-96012000D03*
X111760000Y-121412000D03*
X127000000Y-93472000D03*
X111760000Y-123952000D03*
X127000000Y-90932000D03*
X111760000Y-126492000D03*
X127000000Y-126492000D03*
D13*
X139700000Y-87884000D03*
D14*
X147320000Y-110744000D03*
X139700000Y-90424000D03*
X147320000Y-108204000D03*
X139700000Y-92964000D03*
X147320000Y-105664000D03*
X139700000Y-95504000D03*
X147320000Y-103124000D03*
X139700000Y-98044000D03*
X147320000Y-100584000D03*
X139700000Y-100584000D03*
X147320000Y-98044000D03*
X139700000Y-103124000D03*
X147320000Y-95504000D03*
X139700000Y-105664000D03*
X147320000Y-92964000D03*
X139700000Y-108204000D03*
X147320000Y-90424000D03*
X139700000Y-110744000D03*
X147320000Y-87884000D03*
D15*
X107188000Y-106172000D03*
D16*
X107188000Y-103632000D03*
D17*
X106680000Y-98552000D03*
D14*
X106680000Y-88392000D03*
D17*
X106680000Y-118872000D03*
D14*
X106680000Y-129032000D03*
D18*
X137922000Y-129032000D03*
D19*
X140462000Y-129032000D03*
X143002000Y-129032000D03*
D13*
X157480000Y-87884000D03*
D14*
X165100000Y-108204000D03*
X157480000Y-90424000D03*
X165100000Y-105664000D03*
X157480000Y-92964000D03*
X165100000Y-103124000D03*
X157480000Y-95504000D03*
X165100000Y-100584000D03*
X157480000Y-98044000D03*
X165100000Y-98044000D03*
X157480000Y-100584000D03*
X165100000Y-95504000D03*
X157480000Y-103124000D03*
X165100000Y-92964000D03*
X157480000Y-105664000D03*
X165100000Y-90424000D03*
X157480000Y-108204000D03*
X165100000Y-87884000D03*
D15*
X107188000Y-111252000D03*
D16*
X107188000Y-113792000D03*
D18*
X164592000Y-126492000D03*
D19*
X164592000Y-129032000D03*
D20*
X132588000Y-101346000D03*
X117348000Y-101346000D03*
X132588000Y-103886000D03*
X117348000Y-103886000D03*
X132588000Y-106426000D03*
X117348000Y-106426000D03*
X132588000Y-108966000D03*
X117348000Y-108966000D03*
X132588000Y-111506000D03*
X117348000Y-111506000D03*
X132588000Y-114046000D03*
X117348000Y-114046000D03*
X132588000Y-116586000D03*
X117348000Y-116586000D03*
X132588000Y-119126000D03*
X117348000Y-119126000D03*
X132588000Y-121666000D03*
X117348000Y-121666000D03*
X132588000Y-124206000D03*
X117348000Y-124206000D03*
X132588000Y-126746000D03*
X117348000Y-126746000D03*
X132588000Y-129286000D03*
X117348000Y-129286000D03*
D21*
X119888000Y-129286000D03*
X122428000Y-129286000D03*
X124968000Y-129286000D03*
X127508000Y-129286000D03*
X130048000Y-129286000D03*
X130048000Y-110236000D03*
X130048000Y-112776000D03*
D22*
X147320000Y-98044000D02*
X153111200Y-98044000D01*
X167259000Y-90043000D02*
X165100000Y-87884000D01*
X167259000Y-95707200D02*
X167259000Y-90043000D01*
X166166800Y-96799400D02*
X167259000Y-95707200D01*
X154355800Y-96799400D02*
X166166800Y-96799400D01*
X153111200Y-98044000D02*
X154355800Y-96799400D01*
X128379300Y-111506000D02*
X127000000Y-111252000D01*
X132588000Y-111506000D02*
X128379300Y-111506000D01*
X127000000Y-111252000D02*
X127000000Y-111252000D01*
X126577600Y-112377300D02*
X127000000Y-111252000D01*
X118359600Y-120595300D02*
X126577600Y-112377300D01*
X114767800Y-120595300D02*
X118359600Y-120595300D01*
X112607200Y-122755900D02*
X114767800Y-120595300D01*
X111352000Y-122755900D02*
X112607200Y-122755900D01*
X106680000Y-127427900D02*
X111352000Y-122755900D01*
X106680000Y-129032000D02*
X106680000Y-127427900D01*
X127000000Y-111252000D02*
X127000000Y-111252000D01*
X139700000Y-110744000D02*
X139700000Y-110744000D01*
X162686700Y-125762000D02*
X163416700Y-126492000D01*
X155702000Y-125762000D02*
X162686700Y-125762000D01*
X164592000Y-126492000D02*
X163416700Y-126492000D01*
X139700000Y-110744000D02*
X139700000Y-110744000D01*
X139700000Y-110738000D02*
X139700000Y-110744000D01*
X139700000Y-110744000D02*
X139700000Y-110738000D01*
X139415000Y-111029000D02*
X139700000Y-110744000D01*
X139700000Y-110744000D02*
X139415000Y-111029000D01*
X139700000Y-110744000D02*
X139700000Y-110673500D01*
X139700000Y-110673500D02*
X138757000Y-110671000D01*
X135688800Y-110741500D02*
X133913300Y-108966000D01*
X139700000Y-110673500D02*
X135688800Y-110741500D01*
X132588000Y-108966000D02*
X133913300Y-108966000D01*
X139286700Y-129840000D02*
X139286700Y-129032000D01*
X138737400Y-130389300D02*
X139286700Y-129840000D01*
X128611300Y-130389300D02*
X138737400Y-130389300D01*
X127508000Y-129286000D02*
X128611300Y-130389300D01*
X140462000Y-129032000D02*
X139286700Y-129032000D01*
X127000000Y-118872000D02*
X127000000Y-118872000D01*
X153525300Y-100584000D02*
X157480000Y-100584000D01*
X148445300Y-105664000D02*
X153525300Y-100584000D01*
X147320000Y-105664000D02*
X148445300Y-105664000D01*
X128379300Y-119126000D02*
X132588000Y-119126000D01*
X127000000Y-118872000D02*
X128379300Y-119126000D01*
X145069400Y-106789300D02*
X146194700Y-105664000D01*
X139449600Y-106789300D02*
X145069400Y-106789300D01*
X138538900Y-107700000D02*
X139449600Y-106789300D01*
X138538900Y-108635200D02*
X138538900Y-107700000D01*
X139522300Y-109618600D02*
X138538900Y-108635200D01*
X140241600Y-109618600D02*
X139522300Y-109618600D01*
X140825400Y-110202400D02*
X140241600Y-109618600D01*
X140825400Y-111239100D02*
X140825400Y-110202400D01*
X132938500Y-119126000D02*
X140825400Y-111239100D01*
X132588000Y-119126000D02*
X132938500Y-119126000D01*
X147320000Y-105664000D02*
X146194700Y-105664000D01*
X127000000Y-116332000D02*
X127000000Y-116332000D01*
X128379300Y-116586000D02*
X132588000Y-116586000D01*
X127000000Y-116332000D02*
X128379300Y-116586000D01*
X141950600Y-89009300D02*
X140825300Y-87884000D01*
X154940000Y-89009300D02*
X141950600Y-89009300D01*
X156354700Y-90424000D02*
X154940000Y-89009300D01*
X157480000Y-90424000D02*
X156354700Y-90424000D01*
X139700000Y-87884000D02*
X140825300Y-87884000D01*
X126093300Y-87884000D02*
X139700000Y-87884000D01*
X112885300Y-101092000D02*
X126093300Y-87884000D01*
X111760000Y-101092000D02*
X112885300Y-101092000D01*
X127000000Y-113792000D02*
X128125300Y-113792000D01*
X128379300Y-114046000D02*
X128125300Y-113792000D01*
X132588000Y-114046000D02*
X128379300Y-114046000D01*
X131716700Y-97282000D02*
X138574700Y-90424000D01*
X119235300Y-97282000D02*
X131716700Y-97282000D01*
X112885300Y-103632000D02*
X119235300Y-97282000D01*
X111760000Y-103632000D02*
X112885300Y-103632000D01*
X139700000Y-90424000D02*
X138574700Y-90424000D01*
X145069400Y-91838700D02*
X146194700Y-92964000D01*
X138290000Y-91838700D02*
X145069400Y-91838700D01*
X130306700Y-99822000D02*
X138290000Y-91838700D01*
X124666900Y-99822000D02*
X130306700Y-99822000D01*
X119164300Y-105324600D02*
X124666900Y-99822000D01*
X113732700Y-105324600D02*
X119164300Y-105324600D01*
X112885300Y-106172000D02*
X113732700Y-105324600D01*
X111760000Y-106172000D02*
X112885300Y-106172000D01*
X147320000Y-92964000D02*
X146194700Y-92964000D01*
X127000000Y-108712000D02*
X128125300Y-108712000D01*
X147320000Y-90424000D02*
X147320000Y-91549300D01*
X149289200Y-91549300D02*
X148445300Y-92393200D01*
X162849400Y-91549300D02*
X149289200Y-91549300D01*
X163974700Y-90424000D02*
X162849400Y-91549300D01*
X148445300Y-93434800D02*
X148445300Y-92393200D01*
X147627600Y-94252500D02*
X148445300Y-93434800D01*
X146960800Y-94252500D02*
X147627600Y-94252500D01*
X144914600Y-96298700D02*
X146960800Y-94252500D01*
X144914600Y-97041300D02*
X144914600Y-96298700D01*
X140101900Y-101854000D02*
X144914600Y-97041300D01*
X138434700Y-101854000D02*
X140101900Y-101854000D01*
X134802100Y-105486600D02*
X138434700Y-101854000D01*
X131350700Y-105486600D02*
X134802100Y-105486600D01*
X128125300Y-108712000D02*
X131350700Y-105486600D01*
X147601400Y-91549300D02*
X147320000Y-91549300D01*
X148445300Y-92393200D02*
X147601400Y-91549300D01*
X165100000Y-90424000D02*
X163974700Y-90424000D01*
X111478600Y-109837300D02*
X111760000Y-108712000D01*
X110634700Y-110681200D02*
X111478600Y-109837300D01*
X110634700Y-116800300D02*
X110634700Y-110681200D01*
X111436400Y-117602000D02*
X110634700Y-116800300D01*
X114498700Y-117602000D02*
X111436400Y-117602000D01*
X116022700Y-119126000D02*
X114498700Y-117602000D01*
X111760000Y-108712000D02*
X111760000Y-108712000D01*
X116773100Y-119126000D02*
X116022700Y-119126000D01*
X116773100Y-119126000D02*
X117348000Y-119126000D01*
X147038600Y-96629300D02*
X147320000Y-95504000D01*
X146194700Y-97473200D02*
X147038600Y-96629300D01*
X146194700Y-98261000D02*
X146194700Y-97473200D01*
X140061700Y-104394000D02*
X146194700Y-98261000D01*
X137729700Y-104394000D02*
X140061700Y-104394000D01*
X134167000Y-107956700D02*
X137729700Y-104394000D01*
X130477800Y-107956700D02*
X134167000Y-107956700D01*
X128307900Y-110126600D02*
X130477800Y-107956700D01*
X126513100Y-110126600D02*
X128307900Y-110126600D01*
X118673300Y-117966400D02*
X126513100Y-110126600D01*
X117348000Y-119126000D02*
X118673300Y-117966400D01*
X117348000Y-119126000D02*
X117348000Y-119126000D01*
X147320000Y-95504000D02*
X147320000Y-95504000D01*
X149570600Y-94378700D02*
X148445300Y-95504000D01*
X162560000Y-94378700D02*
X149570600Y-94378700D01*
X163974700Y-92964000D02*
X162560000Y-94378700D01*
X165100000Y-92964000D02*
X163974700Y-92964000D01*
X147320000Y-95504000D02*
X148445300Y-95504000D01*
X136507200Y-95504000D02*
X139700000Y-95504000D01*
X129649200Y-102362000D02*
X136507200Y-95504000D01*
X126660000Y-102362000D02*
X129649200Y-102362000D01*
X118895300Y-110126700D02*
X126660000Y-102362000D01*
X114010600Y-110126700D02*
X118895300Y-110126700D01*
X112885300Y-111252000D02*
X114010600Y-110126700D01*
X111760000Y-111252000D02*
X112885300Y-111252000D01*
X139700000Y-93443500D02*
X139700000Y-92964000D01*
X139671500Y-93472000D02*
X139700000Y-93443500D01*
X139671500Y-93472000D02*
X139192000Y-93472000D01*
X139740000Y-93472000D02*
X139705800Y-93472000D01*
X139705800Y-93472000D02*
X139671500Y-93472000D01*
X111760000Y-113792000D02*
X112885300Y-113792000D01*
X114010600Y-112666700D02*
X112885300Y-113792000D01*
X118251900Y-112666700D02*
X114010600Y-112666700D01*
X126016600Y-104902000D02*
X118251900Y-112666700D01*
X128647400Y-104902000D02*
X126016600Y-104902000D01*
X130737000Y-102812400D02*
X128647400Y-104902000D01*
X133334900Y-102812400D02*
X130737000Y-102812400D01*
X139373300Y-96774000D02*
X133334900Y-102812400D01*
X140076900Y-96774000D02*
X139373300Y-96774000D01*
X140849700Y-96001200D02*
X140076900Y-96774000D01*
X140849700Y-94615900D02*
X140849700Y-96001200D01*
X139705800Y-93472000D02*
X140849700Y-94615900D01*
X134228200Y-104930500D02*
X138574700Y-100584000D01*
X130131000Y-104930500D02*
X134228200Y-104930500D01*
X127619500Y-107442000D02*
X130131000Y-104930500D01*
X124922500Y-107442000D02*
X127619500Y-107442000D01*
X119243900Y-113120600D02*
X124922500Y-107442000D01*
X116096700Y-113120600D02*
X119243900Y-113120600D01*
X112885300Y-116332000D02*
X116096700Y-113120600D01*
X111760000Y-116332000D02*
X112885300Y-116332000D01*
X139700000Y-100584000D02*
X138574700Y-100584000D01*
X163974700Y-103405300D02*
X165100000Y-103124000D01*
X156514100Y-110865900D02*
X163974700Y-103405300D01*
X152136800Y-110865900D02*
X156514100Y-110865900D01*
X134820000Y-128182700D02*
X152136800Y-110865900D01*
X119446000Y-128182700D02*
X134820000Y-128182700D01*
X118673300Y-128955400D02*
X119446000Y-128182700D01*
X117348000Y-129286000D02*
X118673300Y-128955400D01*
X117348000Y-129286000D02*
X117348000Y-129286000D01*
X165100000Y-103124000D02*
X165100000Y-103124000D01*
X162849400Y-99458700D02*
X163974700Y-100584000D01*
X152294600Y-99458700D02*
X162849400Y-99458700D01*
X149899300Y-101854000D02*
X152294600Y-99458700D01*
X144635300Y-101854000D02*
X149899300Y-101854000D01*
X140825300Y-105664000D02*
X144635300Y-101854000D01*
X139700000Y-105664000D02*
X140825300Y-105664000D01*
X165100000Y-100584000D02*
X163974700Y-100584000D01*
X132588000Y-126746000D02*
X131262700Y-126746000D01*
X111760000Y-123952000D02*
X112885300Y-123952000D01*
X114123100Y-125189800D02*
X112885300Y-123952000D01*
X129862500Y-125189800D02*
X114123100Y-125189800D01*
X129862500Y-125345800D02*
X129862500Y-125189800D01*
X131262700Y-126746000D02*
X129862500Y-125345800D01*
X139700000Y-108204000D02*
X140825300Y-108204000D01*
X165100000Y-98044000D02*
X165100000Y-98044000D01*
X141288400Y-112159800D02*
X141288400Y-108316600D01*
X133052200Y-120396000D02*
X141288400Y-112159800D01*
X132145600Y-120396000D02*
X133052200Y-120396000D01*
X129862500Y-122679100D02*
X132145600Y-120396000D01*
X129862500Y-125189800D02*
X129862500Y-122679100D01*
X140937900Y-108316600D02*
X141288400Y-108316600D01*
X140825300Y-108204000D02*
X140937900Y-108316600D01*
X165381400Y-99169300D02*
X165100000Y-98044000D01*
X166225300Y-100013200D02*
X165381400Y-99169300D01*
X166225300Y-101050500D02*
X166225300Y-100013200D01*
X165421800Y-101854000D02*
X166225300Y-101050500D01*
X153300000Y-101854000D02*
X165421800Y-101854000D01*
X148293900Y-106860100D02*
X153300000Y-101854000D01*
X146128600Y-106860100D02*
X148293900Y-106860100D01*
X144672100Y-108316600D02*
X146128600Y-106860100D01*
X141288400Y-108316600D02*
X144672100Y-108316600D01*
X157480000Y-105664000D02*
X156354700Y-105664000D01*
X114066200Y-127672900D02*
X112885300Y-126492000D01*
X133386200Y-127672900D02*
X114066200Y-127672900D01*
X133913300Y-127145800D02*
X133386200Y-127672900D01*
X133913300Y-124206000D02*
X133913300Y-127145800D01*
X132588000Y-124206000D02*
X133913300Y-124206000D01*
X111760000Y-126492000D02*
X112885300Y-126492000D01*
X151274700Y-110744000D02*
X147320000Y-110744000D01*
X156354700Y-105664000D02*
X151274700Y-110744000D01*
X146250000Y-111869300D02*
X133913300Y-124206000D01*
X147320000Y-111869300D02*
X146250000Y-111869300D01*
X147320000Y-110744000D02*
X147320000Y-111869300D01*
X153525300Y-103124000D02*
X157480000Y-103124000D01*
X148445300Y-108204000D02*
X153525300Y-103124000D01*
X147320000Y-108204000D02*
X148445300Y-108204000D01*
X146250000Y-109329300D02*
X147320000Y-109329300D01*
X133913300Y-121666000D02*
X146250000Y-109329300D01*
X132588000Y-121666000D02*
X133913300Y-121666000D01*
X147320000Y-108204000D02*
X147320000Y-109329300D01*
X160432000Y-130462000D02*
X148432000Y-130462000D01*
D23*
G36*
X168222000Y-133622000D02*
X104642000Y-133622000D01*
X104642000Y-129003887D01*
X105245000Y-129003887D01*
X105245000Y-129060113D01*
X105354233Y-129609264D01*
X105665302Y-130074811D01*
X106130849Y-130385880D01*
X106680000Y-130495113D01*
X107229151Y-130385880D01*
X107694698Y-130074811D01*
X108005767Y-129609264D01*
X108115000Y-129060113D01*
X108115000Y-129003887D01*
X108005767Y-128454736D01*
X107694698Y-127989189D01*
X107440000Y-127819005D01*
X107440000Y-127742702D01*
X110516442Y-124666260D01*
X110717189Y-124966698D01*
X111099275Y-125222000D01*
X110717189Y-125477302D01*
X110406120Y-125942849D01*
X110296887Y-126492000D01*
X110406120Y-127041151D01*
X110717189Y-127506698D01*
X111182736Y-127817767D01*
X111731887Y-127927000D01*
X111788113Y-127927000D01*
X112337264Y-127817767D01*
X112802811Y-127506698D01*
X112811777Y-127493279D01*
X113528799Y-128210301D01*
X113775361Y-128375048D01*
X114066200Y-128432900D01*
X116029209Y-128432900D01*
X115774977Y-128813386D01*
X115680968Y-129286000D01*
X115774977Y-129758614D01*
X116042691Y-130159277D01*
X116443354Y-130426991D01*
X116915968Y-130521000D01*
X117780032Y-130521000D01*
X118252646Y-130426991D01*
X118493267Y-130266213D01*
X119087392Y-130266213D01*
X119156857Y-130508397D01*
X119680302Y-130695144D01*
X120235368Y-130667362D01*
X120619143Y-130508397D01*
X120688608Y-130266213D01*
X119888000Y-129465605D01*
X119087392Y-130266213D01*
X118493267Y-130266213D01*
X118653309Y-130159277D01*
X118734983Y-130037043D01*
X118907787Y-130086608D01*
X119708395Y-129286000D01*
X119694253Y-129271858D01*
X119873858Y-129092253D01*
X119888000Y-129106395D01*
X119902143Y-129092253D01*
X120081748Y-129271858D01*
X120067605Y-129286000D01*
X120868213Y-130086608D01*
X121110397Y-130017143D01*
X121160509Y-129876682D01*
X121242990Y-130076303D01*
X121635630Y-130469629D01*
X122148900Y-130682757D01*
X122704661Y-130683242D01*
X123218303Y-130471010D01*
X123611629Y-130078370D01*
X123697949Y-129870488D01*
X123782990Y-130076303D01*
X124175630Y-130469629D01*
X124688900Y-130682757D01*
X125244661Y-130683242D01*
X125758303Y-130471010D01*
X126151629Y-130078370D01*
X126237949Y-129870488D01*
X126322990Y-130076303D01*
X126715630Y-130469629D01*
X127228900Y-130682757D01*
X127784661Y-130683242D01*
X127817055Y-130669857D01*
X128073899Y-130926701D01*
X128320461Y-131091448D01*
X128611300Y-131149300D01*
X138737400Y-131149300D01*
X139028239Y-131091448D01*
X139274801Y-130926701D01*
X139346393Y-130855109D01*
X146446657Y-130855109D01*
X146748218Y-131584943D01*
X147306120Y-132143819D01*
X148035427Y-132446654D01*
X148825109Y-132447343D01*
X149554943Y-132145782D01*
X150113819Y-131587880D01*
X150265746Y-131222000D01*
X158598253Y-131222000D01*
X158748218Y-131584943D01*
X159306120Y-132143819D01*
X160035427Y-132446654D01*
X160825109Y-132447343D01*
X161554943Y-132145782D01*
X162113819Y-131587880D01*
X162416654Y-130858573D01*
X162417343Y-130068891D01*
X162136373Y-129388890D01*
X163150524Y-129388890D01*
X163320355Y-129798924D01*
X163710642Y-130227183D01*
X164235108Y-130473486D01*
X164465000Y-130352819D01*
X164465000Y-129159000D01*
X164719000Y-129159000D01*
X164719000Y-130352819D01*
X164948892Y-130473486D01*
X165473358Y-130227183D01*
X165863645Y-129798924D01*
X166033476Y-129388890D01*
X165912155Y-129159000D01*
X164719000Y-129159000D01*
X164465000Y-129159000D01*
X163271845Y-129159000D01*
X163150524Y-129388890D01*
X162136373Y-129388890D01*
X162115782Y-129339057D01*
X161557880Y-128780181D01*
X160828573Y-128477346D01*
X160038891Y-128476657D01*
X159309057Y-128778218D01*
X158750181Y-129336120D01*
X158598254Y-129702000D01*
X150265747Y-129702000D01*
X150115782Y-129339057D01*
X149557880Y-128780181D01*
X148828573Y-128477346D01*
X148038891Y-128476657D01*
X147309057Y-128778218D01*
X146750181Y-129336120D01*
X146447346Y-130065427D01*
X146446657Y-130855109D01*
X139346393Y-130855109D01*
X139818623Y-130382880D01*
X139893715Y-130433054D01*
X140462000Y-130546093D01*
X141030285Y-130433054D01*
X141512054Y-130111147D01*
X141739702Y-129770447D01*
X141806817Y-129913358D01*
X142235076Y-130303645D01*
X142645110Y-130473476D01*
X142875000Y-130352155D01*
X142875000Y-129159000D01*
X143129000Y-129159000D01*
X143129000Y-130352155D01*
X143358890Y-130473476D01*
X143768924Y-130303645D01*
X144197183Y-129913358D01*
X144443486Y-129388892D01*
X144322819Y-129159000D01*
X143129000Y-129159000D01*
X142875000Y-129159000D01*
X142855000Y-129159000D01*
X142855000Y-128905000D01*
X142875000Y-128905000D01*
X142875000Y-127711845D01*
X143129000Y-127711845D01*
X143129000Y-128905000D01*
X144322819Y-128905000D01*
X144443486Y-128675108D01*
X144197183Y-128150642D01*
X143768924Y-127760355D01*
X143358890Y-127590524D01*
X143129000Y-127711845D01*
X142875000Y-127711845D01*
X142645110Y-127590524D01*
X142235076Y-127760355D01*
X141806817Y-128150642D01*
X141739702Y-128293553D01*
X141512054Y-127952853D01*
X141030285Y-127630946D01*
X140462000Y-127517907D01*
X139893715Y-127630946D01*
X139411946Y-127952853D01*
X139384150Y-127994452D01*
X139375162Y-127946683D01*
X139236090Y-127730559D01*
X139023890Y-127585569D01*
X138772000Y-127534560D01*
X137072000Y-127534560D01*
X136836683Y-127578838D01*
X136620559Y-127717910D01*
X136475569Y-127930110D01*
X136424560Y-128182000D01*
X136424560Y-129629300D01*
X134186745Y-129629300D01*
X134255032Y-129286000D01*
X134186745Y-128942700D01*
X134820000Y-128942700D01*
X135110839Y-128884848D01*
X135357401Y-128720101D01*
X138039237Y-126038265D01*
X151766758Y-126038265D01*
X151978687Y-126551172D01*
X152189171Y-126762024D01*
X151980066Y-126970764D01*
X151767242Y-127483300D01*
X151766758Y-128038265D01*
X151978687Y-128551172D01*
X152370764Y-128943934D01*
X152883300Y-129156758D01*
X153438265Y-129157242D01*
X153951172Y-128945313D01*
X154156078Y-128740764D01*
X154902841Y-128740764D01*
X154972059Y-128982742D01*
X155494780Y-129169155D01*
X156049049Y-129141341D01*
X156431941Y-128982742D01*
X156501159Y-128740764D01*
X155702000Y-127941605D01*
X154902841Y-128740764D01*
X154156078Y-128740764D01*
X154343934Y-128553236D01*
X154425391Y-128357066D01*
X154481258Y-128491941D01*
X154723236Y-128561159D01*
X155522395Y-127762000D01*
X155881605Y-127762000D01*
X156680764Y-128561159D01*
X156922742Y-128491941D01*
X157109155Y-127969220D01*
X157081341Y-127414951D01*
X156922742Y-127032059D01*
X156680764Y-126962841D01*
X155881605Y-127762000D01*
X155522395Y-127762000D01*
X154723236Y-126962841D01*
X154481258Y-127032059D01*
X154429618Y-127176862D01*
X154345313Y-126972828D01*
X154134829Y-126761976D01*
X154343934Y-126553236D01*
X154431954Y-126341262D01*
X154518687Y-126551172D01*
X154910764Y-126943934D01*
X155172024Y-127052419D01*
X155702000Y-127582395D01*
X156231990Y-127052405D01*
X156491172Y-126945313D01*
X156883934Y-126553236D01*
X156896904Y-126522000D01*
X162371898Y-126522000D01*
X162879299Y-127029401D01*
X163094560Y-127173233D01*
X163094560Y-127342000D01*
X163138838Y-127577317D01*
X163277910Y-127793441D01*
X163490110Y-127938431D01*
X163598107Y-127960301D01*
X163320355Y-128265076D01*
X163150524Y-128675110D01*
X163271845Y-128905000D01*
X164465000Y-128905000D01*
X164465000Y-128885000D01*
X164719000Y-128885000D01*
X164719000Y-128905000D01*
X165912155Y-128905000D01*
X166033476Y-128675110D01*
X165863645Y-128265076D01*
X165587499Y-127962063D01*
X165677317Y-127945162D01*
X165893441Y-127806090D01*
X166038431Y-127593890D01*
X166089440Y-127342000D01*
X166089440Y-125642000D01*
X166045162Y-125406683D01*
X165906090Y-125190559D01*
X165693890Y-125045569D01*
X165442000Y-124994560D01*
X163742000Y-124994560D01*
X163506683Y-125038838D01*
X163290559Y-125177910D01*
X163244631Y-125245129D01*
X163224101Y-125224599D01*
X162977539Y-125059852D01*
X162686700Y-125002000D01*
X156897367Y-125002000D01*
X156885313Y-124972828D01*
X156493236Y-124580066D01*
X155980700Y-124367242D01*
X155425735Y-124366758D01*
X154912828Y-124578687D01*
X154520066Y-124970764D01*
X154432046Y-125182738D01*
X154345313Y-124972828D01*
X153953236Y-124580066D01*
X153440700Y-124367242D01*
X152885735Y-124366758D01*
X152372828Y-124578687D01*
X151980066Y-124970764D01*
X151767242Y-125483300D01*
X151766758Y-126038265D01*
X138039237Y-126038265D01*
X152451602Y-111625900D01*
X156514100Y-111625900D01*
X156804939Y-111568048D01*
X157051501Y-111403301D01*
X164212397Y-104242405D01*
X164439275Y-104394000D01*
X164057189Y-104649302D01*
X163746120Y-105114849D01*
X163636887Y-105664000D01*
X163746120Y-106213151D01*
X164057189Y-106678698D01*
X164439275Y-106934000D01*
X164057189Y-107189302D01*
X163746120Y-107654849D01*
X163636887Y-108204000D01*
X163746120Y-108753151D01*
X164057189Y-109218698D01*
X164522736Y-109529767D01*
X165071887Y-109639000D01*
X165128113Y-109639000D01*
X165677264Y-109529767D01*
X166142811Y-109218698D01*
X166453880Y-108753151D01*
X166563113Y-108204000D01*
X166453880Y-107654849D01*
X166142811Y-107189302D01*
X165760725Y-106934000D01*
X166142811Y-106678698D01*
X166453880Y-106213151D01*
X166563113Y-105664000D01*
X166453880Y-105114849D01*
X166142811Y-104649302D01*
X165760725Y-104394000D01*
X166142811Y-104138698D01*
X166453880Y-103673151D01*
X166563113Y-103124000D01*
X166453880Y-102574849D01*
X166182260Y-102168342D01*
X166762701Y-101587901D01*
X166927448Y-101341339D01*
X166985300Y-101050500D01*
X166985300Y-100013200D01*
X166927448Y-99722361D01*
X166762701Y-99475799D01*
X166224037Y-98937135D01*
X166453880Y-98593151D01*
X166563113Y-98044000D01*
X166453880Y-97494849D01*
X166142811Y-97029302D01*
X165760725Y-96774000D01*
X166142811Y-96518698D01*
X166453880Y-96053151D01*
X166563113Y-95504000D01*
X166453880Y-94954849D01*
X166142811Y-94489302D01*
X165760725Y-94234000D01*
X166142811Y-93978698D01*
X166453880Y-93513151D01*
X166563113Y-92964000D01*
X166453880Y-92414849D01*
X166142811Y-91949302D01*
X165760725Y-91694000D01*
X166142811Y-91438698D01*
X166453880Y-90973151D01*
X166563113Y-90424000D01*
X166453880Y-89874849D01*
X166142811Y-89409302D01*
X165738297Y-89139014D01*
X165955134Y-89036389D01*
X166331041Y-88621423D01*
X166491904Y-88233039D01*
X166369915Y-88011000D01*
X165227000Y-88011000D01*
X165227000Y-88031000D01*
X164973000Y-88031000D01*
X164973000Y-88011000D01*
X163830085Y-88011000D01*
X163708096Y-88233039D01*
X163868959Y-88621423D01*
X164244866Y-89036389D01*
X164461703Y-89139014D01*
X164057189Y-89409302D01*
X163873563Y-89684118D01*
X163683861Y-89721852D01*
X163437299Y-89886599D01*
X162534598Y-90789300D01*
X158870450Y-90789300D01*
X158943113Y-90424000D01*
X158833880Y-89874849D01*
X158522811Y-89409302D01*
X158387665Y-89319000D01*
X158406309Y-89319000D01*
X158639698Y-89222327D01*
X158818327Y-89043699D01*
X158915000Y-88810310D01*
X158915000Y-88169750D01*
X158756250Y-88011000D01*
X157607000Y-88011000D01*
X157607000Y-88031000D01*
X157353000Y-88031000D01*
X157353000Y-88011000D01*
X156203750Y-88011000D01*
X156045000Y-88169750D01*
X156045000Y-88810310D01*
X156141673Y-89043699D01*
X156320302Y-89222327D01*
X156553691Y-89319000D01*
X156572335Y-89319000D01*
X156437189Y-89409302D01*
X156428223Y-89422721D01*
X155477401Y-88471899D01*
X155230839Y-88307152D01*
X154940000Y-88249300D01*
X148705169Y-88249300D01*
X148711904Y-88233039D01*
X148589915Y-88011000D01*
X147447000Y-88011000D01*
X147447000Y-88031000D01*
X147193000Y-88031000D01*
X147193000Y-88011000D01*
X146050085Y-88011000D01*
X145928096Y-88233039D01*
X145934831Y-88249300D01*
X142265402Y-88249300D01*
X141551063Y-87534961D01*
X145928096Y-87534961D01*
X146050085Y-87757000D01*
X147193000Y-87757000D01*
X147193000Y-86613371D01*
X147447000Y-86613371D01*
X147447000Y-87757000D01*
X148589915Y-87757000D01*
X148711904Y-87534961D01*
X148551041Y-87146577D01*
X148379934Y-86957690D01*
X156045000Y-86957690D01*
X156045000Y-87598250D01*
X156203750Y-87757000D01*
X157353000Y-87757000D01*
X157353000Y-86607750D01*
X157607000Y-86607750D01*
X157607000Y-87757000D01*
X158756250Y-87757000D01*
X158915000Y-87598250D01*
X158915000Y-87534961D01*
X163708096Y-87534961D01*
X163830085Y-87757000D01*
X164973000Y-87757000D01*
X164973000Y-86613371D01*
X165227000Y-86613371D01*
X165227000Y-87757000D01*
X166369915Y-87757000D01*
X166491904Y-87534961D01*
X166331041Y-87146577D01*
X165955134Y-86731611D01*
X165449041Y-86492086D01*
X165227000Y-86613371D01*
X164973000Y-86613371D01*
X164750959Y-86492086D01*
X164244866Y-86731611D01*
X163868959Y-87146577D01*
X163708096Y-87534961D01*
X158915000Y-87534961D01*
X158915000Y-86957690D01*
X158818327Y-86724301D01*
X158639698Y-86545673D01*
X158406309Y-86449000D01*
X157765750Y-86449000D01*
X157607000Y-86607750D01*
X157353000Y-86607750D01*
X157194250Y-86449000D01*
X156553691Y-86449000D01*
X156320302Y-86545673D01*
X156141673Y-86724301D01*
X156045000Y-86957690D01*
X148379934Y-86957690D01*
X148175134Y-86731611D01*
X147669041Y-86492086D01*
X147447000Y-86613371D01*
X147193000Y-86613371D01*
X146970959Y-86492086D01*
X146464866Y-86731611D01*
X146088959Y-87146577D01*
X145928096Y-87534961D01*
X141551063Y-87534961D01*
X141362701Y-87346599D01*
X141147440Y-87202767D01*
X141147440Y-87084000D01*
X141103162Y-86848683D01*
X140964090Y-86632559D01*
X140751890Y-86487569D01*
X140500000Y-86436560D01*
X138900000Y-86436560D01*
X138664683Y-86480838D01*
X138448559Y-86619910D01*
X138303569Y-86832110D01*
X138252560Y-87084000D01*
X138252560Y-87124000D01*
X126093300Y-87124000D01*
X125802461Y-87181852D01*
X125555899Y-87346599D01*
X112811777Y-100090721D01*
X112802811Y-100077302D01*
X112398297Y-99807014D01*
X112615134Y-99704389D01*
X112991041Y-99289423D01*
X113151904Y-98901039D01*
X113029915Y-98679000D01*
X111887000Y-98679000D01*
X111887000Y-98699000D01*
X111633000Y-98699000D01*
X111633000Y-98679000D01*
X110490085Y-98679000D01*
X110368096Y-98901039D01*
X110528959Y-99289423D01*
X110904866Y-99704389D01*
X111121703Y-99807014D01*
X110717189Y-100077302D01*
X110406120Y-100542849D01*
X110296887Y-101092000D01*
X110406120Y-101641151D01*
X110717189Y-102106698D01*
X111099275Y-102362000D01*
X110717189Y-102617302D01*
X110406120Y-103082849D01*
X110296887Y-103632000D01*
X110406120Y-104181151D01*
X110717189Y-104646698D01*
X111099275Y-104902000D01*
X110717189Y-105157302D01*
X110406120Y-105622849D01*
X110296887Y-106172000D01*
X110406120Y-106721151D01*
X110717189Y-107186698D01*
X111099275Y-107442000D01*
X110717189Y-107697302D01*
X110406120Y-108162849D01*
X110296887Y-108712000D01*
X110406120Y-109261151D01*
X110635963Y-109605135D01*
X110097299Y-110143799D01*
X109932552Y-110390361D01*
X109874700Y-110681200D01*
X109874700Y-116800300D01*
X109932552Y-117091139D01*
X110097299Y-117337701D01*
X110677019Y-117917421D01*
X110406120Y-118322849D01*
X110296887Y-118872000D01*
X110406120Y-119421151D01*
X110717189Y-119886698D01*
X111099275Y-120142000D01*
X110717189Y-120397302D01*
X110406120Y-120862849D01*
X110296887Y-121412000D01*
X110406120Y-121961151D01*
X110672813Y-122360285D01*
X106142599Y-126890499D01*
X105977852Y-127137061D01*
X105920000Y-127427900D01*
X105920000Y-127819005D01*
X105665302Y-127989189D01*
X105354233Y-128454736D01*
X105245000Y-129003887D01*
X104642000Y-129003887D01*
X104642000Y-119156187D01*
X105244752Y-119156187D01*
X105462757Y-119683800D01*
X105866077Y-120087824D01*
X106393309Y-120306750D01*
X106964187Y-120307248D01*
X107491800Y-120089243D01*
X107895824Y-119685923D01*
X108114750Y-119158691D01*
X108115248Y-118587813D01*
X107897243Y-118060200D01*
X107493923Y-117656176D01*
X106966691Y-117437250D01*
X106395813Y-117436752D01*
X105868200Y-117654757D01*
X105464176Y-118058077D01*
X105245250Y-118585309D01*
X105244752Y-119156187D01*
X104642000Y-119156187D01*
X104642000Y-114095991D01*
X105652735Y-114095991D01*
X105885932Y-114660371D01*
X106317357Y-115092551D01*
X106881330Y-115326733D01*
X107491991Y-115327265D01*
X108056371Y-115094068D01*
X108488551Y-114662643D01*
X108722733Y-114098670D01*
X108723265Y-113488009D01*
X108490068Y-112923629D01*
X108312908Y-112746159D01*
X108447699Y-112690327D01*
X108626327Y-112511698D01*
X108723000Y-112278309D01*
X108723000Y-111537750D01*
X108564250Y-111379000D01*
X107315000Y-111379000D01*
X107315000Y-111399000D01*
X107061000Y-111399000D01*
X107061000Y-111379000D01*
X105811750Y-111379000D01*
X105653000Y-111537750D01*
X105653000Y-112278309D01*
X105749673Y-112511698D01*
X105928301Y-112690327D01*
X106062994Y-112746119D01*
X105887449Y-112921357D01*
X105653267Y-113485330D01*
X105652735Y-114095991D01*
X104642000Y-114095991D01*
X104642000Y-110225691D01*
X105653000Y-110225691D01*
X105653000Y-110966250D01*
X105811750Y-111125000D01*
X107061000Y-111125000D01*
X107061000Y-109875750D01*
X107315000Y-109875750D01*
X107315000Y-111125000D01*
X108564250Y-111125000D01*
X108723000Y-110966250D01*
X108723000Y-110225691D01*
X108626327Y-109992302D01*
X108447699Y-109813673D01*
X108214310Y-109717000D01*
X107473750Y-109717000D01*
X107315000Y-109875750D01*
X107061000Y-109875750D01*
X106902250Y-109717000D01*
X106161690Y-109717000D01*
X105928301Y-109813673D01*
X105749673Y-109992302D01*
X105653000Y-110225691D01*
X104642000Y-110225691D01*
X104642000Y-106457750D01*
X105653000Y-106457750D01*
X105653000Y-107198309D01*
X105749673Y-107431698D01*
X105928301Y-107610327D01*
X106161690Y-107707000D01*
X106902250Y-107707000D01*
X107061000Y-107548250D01*
X107061000Y-106299000D01*
X107315000Y-106299000D01*
X107315000Y-107548250D01*
X107473750Y-107707000D01*
X108214310Y-107707000D01*
X108447699Y-107610327D01*
X108626327Y-107431698D01*
X108723000Y-107198309D01*
X108723000Y-106457750D01*
X108564250Y-106299000D01*
X107315000Y-106299000D01*
X107061000Y-106299000D01*
X105811750Y-106299000D01*
X105653000Y-106457750D01*
X104642000Y-106457750D01*
X104642000Y-103935991D01*
X105652735Y-103935991D01*
X105885932Y-104500371D01*
X106063092Y-104677841D01*
X105928301Y-104733673D01*
X105749673Y-104912302D01*
X105653000Y-105145691D01*
X105653000Y-105886250D01*
X105811750Y-106045000D01*
X107061000Y-106045000D01*
X107061000Y-106025000D01*
X107315000Y-106025000D01*
X107315000Y-106045000D01*
X108564250Y-106045000D01*
X108723000Y-105886250D01*
X108723000Y-105145691D01*
X108626327Y-104912302D01*
X108447699Y-104733673D01*
X108313006Y-104677881D01*
X108488551Y-104502643D01*
X108722733Y-103938670D01*
X108723265Y-103328009D01*
X108490068Y-102763629D01*
X108058643Y-102331449D01*
X107494670Y-102097267D01*
X106884009Y-102096735D01*
X106319629Y-102329932D01*
X105887449Y-102761357D01*
X105653267Y-103325330D01*
X105652735Y-103935991D01*
X104642000Y-103935991D01*
X104642000Y-98836187D01*
X105244752Y-98836187D01*
X105462757Y-99363800D01*
X105866077Y-99767824D01*
X106393309Y-99986750D01*
X106964187Y-99987248D01*
X107491800Y-99769243D01*
X107895824Y-99365923D01*
X108114750Y-98838691D01*
X108115248Y-98267813D01*
X107897243Y-97740200D01*
X107493923Y-97336176D01*
X106966691Y-97117250D01*
X106395813Y-97116752D01*
X105868200Y-97334757D01*
X105464176Y-97738077D01*
X105245250Y-98265309D01*
X105244752Y-98836187D01*
X104642000Y-98836187D01*
X104642000Y-93472000D01*
X110296887Y-93472000D01*
X110406120Y-94021151D01*
X110717189Y-94486698D01*
X111099275Y-94742000D01*
X110717189Y-94997302D01*
X110406120Y-95462849D01*
X110296887Y-96012000D01*
X110406120Y-96561151D01*
X110717189Y-97026698D01*
X111121703Y-97296986D01*
X110904866Y-97399611D01*
X110528959Y-97814577D01*
X110368096Y-98202961D01*
X110490085Y-98425000D01*
X111633000Y-98425000D01*
X111633000Y-98405000D01*
X111887000Y-98405000D01*
X111887000Y-98425000D01*
X113029915Y-98425000D01*
X113151904Y-98202961D01*
X112991041Y-97814577D01*
X112615134Y-97399611D01*
X112398297Y-97296986D01*
X112802811Y-97026698D01*
X113113880Y-96561151D01*
X113223113Y-96012000D01*
X113113880Y-95462849D01*
X112802811Y-94997302D01*
X112420725Y-94742000D01*
X112802811Y-94486698D01*
X113113880Y-94021151D01*
X113223113Y-93472000D01*
X113113880Y-92922849D01*
X112802811Y-92457302D01*
X112658535Y-92360899D01*
X112795317Y-92335162D01*
X113011441Y-92196090D01*
X113156431Y-91983890D01*
X113207440Y-91732000D01*
X113207440Y-90132000D01*
X113163162Y-89896683D01*
X113024090Y-89680559D01*
X112811890Y-89535569D01*
X112560000Y-89484560D01*
X110960000Y-89484560D01*
X110724683Y-89528838D01*
X110508559Y-89667910D01*
X110363569Y-89880110D01*
X110312560Y-90132000D01*
X110312560Y-91732000D01*
X110356838Y-91967317D01*
X110495910Y-92183441D01*
X110708110Y-92328431D01*
X110863089Y-92359815D01*
X110717189Y-92457302D01*
X110406120Y-92922849D01*
X110296887Y-93472000D01*
X104642000Y-93472000D01*
X104642000Y-88363887D01*
X105245000Y-88363887D01*
X105245000Y-88420113D01*
X105354233Y-88969264D01*
X105665302Y-89434811D01*
X106130849Y-89745880D01*
X106680000Y-89855113D01*
X107229151Y-89745880D01*
X107694698Y-89434811D01*
X108005767Y-88969264D01*
X108115000Y-88420113D01*
X108115000Y-88363887D01*
X108005767Y-87814736D01*
X107694698Y-87349189D01*
X107229151Y-87038120D01*
X106680000Y-86928887D01*
X106130849Y-87038120D01*
X105665302Y-87349189D01*
X105354233Y-87814736D01*
X105245000Y-88363887D01*
X104642000Y-88363887D01*
X104642000Y-85042000D01*
X168222000Y-85042000D01*
X168222000Y-133622000D01*
X168222000Y-133622000D01*
G37*
X168222000Y-133622000D02*
X104642000Y-133622000D01*
X104642000Y-129003887D01*
X105245000Y-129003887D01*
X105245000Y-129060113D01*
X105354233Y-129609264D01*
X105665302Y-130074811D01*
X106130849Y-130385880D01*
X106680000Y-130495113D01*
X107229151Y-130385880D01*
X107694698Y-130074811D01*
X108005767Y-129609264D01*
X108115000Y-129060113D01*
X108115000Y-129003887D01*
X108005767Y-128454736D01*
X107694698Y-127989189D01*
X107440000Y-127819005D01*
X107440000Y-127742702D01*
X110516442Y-124666260D01*
X110717189Y-124966698D01*
X111099275Y-125222000D01*
X110717189Y-125477302D01*
X110406120Y-125942849D01*
X110296887Y-126492000D01*
X110406120Y-127041151D01*
X110717189Y-127506698D01*
X111182736Y-127817767D01*
X111731887Y-127927000D01*
X111788113Y-127927000D01*
X112337264Y-127817767D01*
X112802811Y-127506698D01*
X112811777Y-127493279D01*
X113528799Y-128210301D01*
X113775361Y-128375048D01*
X114066200Y-128432900D01*
X116029209Y-128432900D01*
X115774977Y-128813386D01*
X115680968Y-129286000D01*
X115774977Y-129758614D01*
X116042691Y-130159277D01*
X116443354Y-130426991D01*
X116915968Y-130521000D01*
X117780032Y-130521000D01*
X118252646Y-130426991D01*
X118493267Y-130266213D01*
X119087392Y-130266213D01*
X119156857Y-130508397D01*
X119680302Y-130695144D01*
X120235368Y-130667362D01*
X120619143Y-130508397D01*
X120688608Y-130266213D01*
X119888000Y-129465605D01*
X119087392Y-130266213D01*
X118493267Y-130266213D01*
X118653309Y-130159277D01*
X118734983Y-130037043D01*
X118907787Y-130086608D01*
X119708395Y-129286000D01*
X119694253Y-129271858D01*
X119873858Y-129092253D01*
X119888000Y-129106395D01*
X119902143Y-129092253D01*
X120081748Y-129271858D01*
X120067605Y-129286000D01*
X120868213Y-130086608D01*
X121110397Y-130017143D01*
X121160509Y-129876682D01*
X121242990Y-130076303D01*
X121635630Y-130469629D01*
X122148900Y-130682757D01*
X122704661Y-130683242D01*
X123218303Y-130471010D01*
X123611629Y-130078370D01*
X123697949Y-129870488D01*
X123782990Y-130076303D01*
X124175630Y-130469629D01*
X124688900Y-130682757D01*
X125244661Y-130683242D01*
X125758303Y-130471010D01*
X126151629Y-130078370D01*
X126237949Y-129870488D01*
X126322990Y-130076303D01*
X126715630Y-130469629D01*
X127228900Y-130682757D01*
X127784661Y-130683242D01*
X127817055Y-130669857D01*
X128073899Y-130926701D01*
X128320461Y-131091448D01*
X128611300Y-131149300D01*
X138737400Y-131149300D01*
X139028239Y-131091448D01*
X139274801Y-130926701D01*
X139346393Y-130855109D01*
X146446657Y-130855109D01*
X146748218Y-131584943D01*
X147306120Y-132143819D01*
X148035427Y-132446654D01*
X148825109Y-132447343D01*
X149554943Y-132145782D01*
X150113819Y-131587880D01*
X150265746Y-131222000D01*
X158598253Y-131222000D01*
X158748218Y-131584943D01*
X159306120Y-132143819D01*
X160035427Y-132446654D01*
X160825109Y-132447343D01*
X161554943Y-132145782D01*
X162113819Y-131587880D01*
X162416654Y-130858573D01*
X162417343Y-130068891D01*
X162136373Y-129388890D01*
X163150524Y-129388890D01*
X163320355Y-129798924D01*
X163710642Y-130227183D01*
X164235108Y-130473486D01*
X164465000Y-130352819D01*
X164465000Y-129159000D01*
X164719000Y-129159000D01*
X164719000Y-130352819D01*
X164948892Y-130473486D01*
X165473358Y-130227183D01*
X165863645Y-129798924D01*
X166033476Y-129388890D01*
X165912155Y-129159000D01*
X164719000Y-129159000D01*
X164465000Y-129159000D01*
X163271845Y-129159000D01*
X163150524Y-129388890D01*
X162136373Y-129388890D01*
X162115782Y-129339057D01*
X161557880Y-128780181D01*
X160828573Y-128477346D01*
X160038891Y-128476657D01*
X159309057Y-128778218D01*
X158750181Y-129336120D01*
X158598254Y-129702000D01*
X150265747Y-129702000D01*
X150115782Y-129339057D01*
X149557880Y-128780181D01*
X148828573Y-128477346D01*
X148038891Y-128476657D01*
X147309057Y-128778218D01*
X146750181Y-129336120D01*
X146447346Y-130065427D01*
X146446657Y-130855109D01*
X139346393Y-130855109D01*
X139818623Y-130382880D01*
X139893715Y-130433054D01*
X140462000Y-130546093D01*
X141030285Y-130433054D01*
X141512054Y-130111147D01*
X141739702Y-129770447D01*
X141806817Y-129913358D01*
X142235076Y-130303645D01*
X142645110Y-130473476D01*
X142875000Y-130352155D01*
X142875000Y-129159000D01*
X143129000Y-129159000D01*
X143129000Y-130352155D01*
X143358890Y-130473476D01*
X143768924Y-130303645D01*
X144197183Y-129913358D01*
X144443486Y-129388892D01*
X144322819Y-129159000D01*
X143129000Y-129159000D01*
X142875000Y-129159000D01*
X142855000Y-129159000D01*
X142855000Y-128905000D01*
X142875000Y-128905000D01*
X142875000Y-127711845D01*
X143129000Y-127711845D01*
X143129000Y-128905000D01*
X144322819Y-128905000D01*
X144443486Y-128675108D01*
X144197183Y-128150642D01*
X143768924Y-127760355D01*
X143358890Y-127590524D01*
X143129000Y-127711845D01*
X142875000Y-127711845D01*
X142645110Y-127590524D01*
X142235076Y-127760355D01*
X141806817Y-128150642D01*
X141739702Y-128293553D01*
X141512054Y-127952853D01*
X141030285Y-127630946D01*
X140462000Y-127517907D01*
X139893715Y-127630946D01*
X139411946Y-127952853D01*
X139384150Y-127994452D01*
X139375162Y-127946683D01*
X139236090Y-127730559D01*
X139023890Y-127585569D01*
X138772000Y-127534560D01*
X137072000Y-127534560D01*
X136836683Y-127578838D01*
X136620559Y-127717910D01*
X136475569Y-127930110D01*
X136424560Y-128182000D01*
X136424560Y-129629300D01*
X134186745Y-129629300D01*
X134255032Y-129286000D01*
X134186745Y-128942700D01*
X134820000Y-128942700D01*
X135110839Y-128884848D01*
X135357401Y-128720101D01*
X138039237Y-126038265D01*
X151766758Y-126038265D01*
X151978687Y-126551172D01*
X152189171Y-126762024D01*
X151980066Y-126970764D01*
X151767242Y-127483300D01*
X151766758Y-128038265D01*
X151978687Y-128551172D01*
X152370764Y-128943934D01*
X152883300Y-129156758D01*
X153438265Y-129157242D01*
X153951172Y-128945313D01*
X154156078Y-128740764D01*
X154902841Y-128740764D01*
X154972059Y-128982742D01*
X155494780Y-129169155D01*
X156049049Y-129141341D01*
X156431941Y-128982742D01*
X156501159Y-128740764D01*
X155702000Y-127941605D01*
X154902841Y-128740764D01*
X154156078Y-128740764D01*
X154343934Y-128553236D01*
X154425391Y-128357066D01*
X154481258Y-128491941D01*
X154723236Y-128561159D01*
X155522395Y-127762000D01*
X155881605Y-127762000D01*
X156680764Y-128561159D01*
X156922742Y-128491941D01*
X157109155Y-127969220D01*
X157081341Y-127414951D01*
X156922742Y-127032059D01*
X156680764Y-126962841D01*
X155881605Y-127762000D01*
X155522395Y-127762000D01*
X154723236Y-126962841D01*
X154481258Y-127032059D01*
X154429618Y-127176862D01*
X154345313Y-126972828D01*
X154134829Y-126761976D01*
X154343934Y-126553236D01*
X154431954Y-126341262D01*
X154518687Y-126551172D01*
X154910764Y-126943934D01*
X155172024Y-127052419D01*
X155702000Y-127582395D01*
X156231990Y-127052405D01*
X156491172Y-126945313D01*
X156883934Y-126553236D01*
X156896904Y-126522000D01*
X162371898Y-126522000D01*
X162879299Y-127029401D01*
X163094560Y-127173233D01*
X163094560Y-127342000D01*
X163138838Y-127577317D01*
X163277910Y-127793441D01*
X163490110Y-127938431D01*
X163598107Y-127960301D01*
X163320355Y-128265076D01*
X163150524Y-128675110D01*
X163271845Y-128905000D01*
X164465000Y-128905000D01*
X164465000Y-128885000D01*
X164719000Y-128885000D01*
X164719000Y-128905000D01*
X165912155Y-128905000D01*
X166033476Y-128675110D01*
X165863645Y-128265076D01*
X165587499Y-127962063D01*
X165677317Y-127945162D01*
X165893441Y-127806090D01*
X166038431Y-127593890D01*
X166089440Y-127342000D01*
X166089440Y-125642000D01*
X166045162Y-125406683D01*
X165906090Y-125190559D01*
X165693890Y-125045569D01*
X165442000Y-124994560D01*
X163742000Y-124994560D01*
X163506683Y-125038838D01*
X163290559Y-125177910D01*
X163244631Y-125245129D01*
X163224101Y-125224599D01*
X162977539Y-125059852D01*
X162686700Y-125002000D01*
X156897367Y-125002000D01*
X156885313Y-124972828D01*
X156493236Y-124580066D01*
X155980700Y-124367242D01*
X155425735Y-124366758D01*
X154912828Y-124578687D01*
X154520066Y-124970764D01*
X154432046Y-125182738D01*
X154345313Y-124972828D01*
X153953236Y-124580066D01*
X153440700Y-124367242D01*
X152885735Y-124366758D01*
X152372828Y-124578687D01*
X151980066Y-124970764D01*
X151767242Y-125483300D01*
X151766758Y-126038265D01*
X138039237Y-126038265D01*
X152451602Y-111625900D01*
X156514100Y-111625900D01*
X156804939Y-111568048D01*
X157051501Y-111403301D01*
X164212397Y-104242405D01*
X164439275Y-104394000D01*
X164057189Y-104649302D01*
X163746120Y-105114849D01*
X163636887Y-105664000D01*
X163746120Y-106213151D01*
X164057189Y-106678698D01*
X164439275Y-106934000D01*
X164057189Y-107189302D01*
X163746120Y-107654849D01*
X163636887Y-108204000D01*
X163746120Y-108753151D01*
X164057189Y-109218698D01*
X164522736Y-109529767D01*
X165071887Y-109639000D01*
X165128113Y-109639000D01*
X165677264Y-109529767D01*
X166142811Y-109218698D01*
X166453880Y-108753151D01*
X166563113Y-108204000D01*
X166453880Y-107654849D01*
X166142811Y-107189302D01*
X165760725Y-106934000D01*
X166142811Y-106678698D01*
X166453880Y-106213151D01*
X166563113Y-105664000D01*
X166453880Y-105114849D01*
X166142811Y-104649302D01*
X165760725Y-104394000D01*
X166142811Y-104138698D01*
X166453880Y-103673151D01*
X166563113Y-103124000D01*
X166453880Y-102574849D01*
X166182260Y-102168342D01*
X166762701Y-101587901D01*
X166927448Y-101341339D01*
X166985300Y-101050500D01*
X166985300Y-100013200D01*
X166927448Y-99722361D01*
X166762701Y-99475799D01*
X166224037Y-98937135D01*
X166453880Y-98593151D01*
X166563113Y-98044000D01*
X166453880Y-97494849D01*
X166142811Y-97029302D01*
X165760725Y-96774000D01*
X166142811Y-96518698D01*
X166453880Y-96053151D01*
X166563113Y-95504000D01*
X166453880Y-94954849D01*
X166142811Y-94489302D01*
X165760725Y-94234000D01*
X166142811Y-93978698D01*
X166453880Y-93513151D01*
X166563113Y-92964000D01*
X166453880Y-92414849D01*
X166142811Y-91949302D01*
X165760725Y-91694000D01*
X166142811Y-91438698D01*
X166453880Y-90973151D01*
X166563113Y-90424000D01*
X166453880Y-89874849D01*
X166142811Y-89409302D01*
X165738297Y-89139014D01*
X165955134Y-89036389D01*
X166331041Y-88621423D01*
X166491904Y-88233039D01*
X166369915Y-88011000D01*
X165227000Y-88011000D01*
X165227000Y-88031000D01*
X164973000Y-88031000D01*
X164973000Y-88011000D01*
X163830085Y-88011000D01*
X163708096Y-88233039D01*
X163868959Y-88621423D01*
X164244866Y-89036389D01*
X164461703Y-89139014D01*
X164057189Y-89409302D01*
X163873563Y-89684118D01*
X163683861Y-89721852D01*
X163437299Y-89886599D01*
X162534598Y-90789300D01*
X158870450Y-90789300D01*
X158943113Y-90424000D01*
X158833880Y-89874849D01*
X158522811Y-89409302D01*
X158387665Y-89319000D01*
X158406309Y-89319000D01*
X158639698Y-89222327D01*
X158818327Y-89043699D01*
X158915000Y-88810310D01*
X158915000Y-88169750D01*
X158756250Y-88011000D01*
X157607000Y-88011000D01*
X157607000Y-88031000D01*
X157353000Y-88031000D01*
X157353000Y-88011000D01*
X156203750Y-88011000D01*
X156045000Y-88169750D01*
X156045000Y-88810310D01*
X156141673Y-89043699D01*
X156320302Y-89222327D01*
X156553691Y-89319000D01*
X156572335Y-89319000D01*
X156437189Y-89409302D01*
X156428223Y-89422721D01*
X155477401Y-88471899D01*
X155230839Y-88307152D01*
X154940000Y-88249300D01*
X148705169Y-88249300D01*
X148711904Y-88233039D01*
X148589915Y-88011000D01*
X147447000Y-88011000D01*
X147447000Y-88031000D01*
X147193000Y-88031000D01*
X147193000Y-88011000D01*
X146050085Y-88011000D01*
X145928096Y-88233039D01*
X145934831Y-88249300D01*
X142265402Y-88249300D01*
X141551063Y-87534961D01*
X145928096Y-87534961D01*
X146050085Y-87757000D01*
X147193000Y-87757000D01*
X147193000Y-86613371D01*
X147447000Y-86613371D01*
X147447000Y-87757000D01*
X148589915Y-87757000D01*
X148711904Y-87534961D01*
X148551041Y-87146577D01*
X148379934Y-86957690D01*
X156045000Y-86957690D01*
X156045000Y-87598250D01*
X156203750Y-87757000D01*
X157353000Y-87757000D01*
X157353000Y-86607750D01*
X157607000Y-86607750D01*
X157607000Y-87757000D01*
X158756250Y-87757000D01*
X158915000Y-87598250D01*
X158915000Y-87534961D01*
X163708096Y-87534961D01*
X163830085Y-87757000D01*
X164973000Y-87757000D01*
X164973000Y-86613371D01*
X165227000Y-86613371D01*
X165227000Y-87757000D01*
X166369915Y-87757000D01*
X166491904Y-87534961D01*
X166331041Y-87146577D01*
X165955134Y-86731611D01*
X165449041Y-86492086D01*
X165227000Y-86613371D01*
X164973000Y-86613371D01*
X164750959Y-86492086D01*
X164244866Y-86731611D01*
X163868959Y-87146577D01*
X163708096Y-87534961D01*
X158915000Y-87534961D01*
X158915000Y-86957690D01*
X158818327Y-86724301D01*
X158639698Y-86545673D01*
X158406309Y-86449000D01*
X157765750Y-86449000D01*
X157607000Y-86607750D01*
X157353000Y-86607750D01*
X157194250Y-86449000D01*
X156553691Y-86449000D01*
X156320302Y-86545673D01*
X156141673Y-86724301D01*
X156045000Y-86957690D01*
X148379934Y-86957690D01*
X148175134Y-86731611D01*
X147669041Y-86492086D01*
X147447000Y-86613371D01*
X147193000Y-86613371D01*
X146970959Y-86492086D01*
X146464866Y-86731611D01*
X146088959Y-87146577D01*
X145928096Y-87534961D01*
X141551063Y-87534961D01*
X141362701Y-87346599D01*
X141147440Y-87202767D01*
X141147440Y-87084000D01*
X141103162Y-86848683D01*
X140964090Y-86632559D01*
X140751890Y-86487569D01*
X140500000Y-86436560D01*
X138900000Y-86436560D01*
X138664683Y-86480838D01*
X138448559Y-86619910D01*
X138303569Y-86832110D01*
X138252560Y-87084000D01*
X138252560Y-87124000D01*
X126093300Y-87124000D01*
X125802461Y-87181852D01*
X125555899Y-87346599D01*
X112811777Y-100090721D01*
X112802811Y-100077302D01*
X112398297Y-99807014D01*
X112615134Y-99704389D01*
X112991041Y-99289423D01*
X113151904Y-98901039D01*
X113029915Y-98679000D01*
X111887000Y-98679000D01*
X111887000Y-98699000D01*
X111633000Y-98699000D01*
X111633000Y-98679000D01*
X110490085Y-98679000D01*
X110368096Y-98901039D01*
X110528959Y-99289423D01*
X110904866Y-99704389D01*
X111121703Y-99807014D01*
X110717189Y-100077302D01*
X110406120Y-100542849D01*
X110296887Y-101092000D01*
X110406120Y-101641151D01*
X110717189Y-102106698D01*
X111099275Y-102362000D01*
X110717189Y-102617302D01*
X110406120Y-103082849D01*
X110296887Y-103632000D01*
X110406120Y-104181151D01*
X110717189Y-104646698D01*
X111099275Y-104902000D01*
X110717189Y-105157302D01*
X110406120Y-105622849D01*
X110296887Y-106172000D01*
X110406120Y-106721151D01*
X110717189Y-107186698D01*
X111099275Y-107442000D01*
X110717189Y-107697302D01*
X110406120Y-108162849D01*
X110296887Y-108712000D01*
X110406120Y-109261151D01*
X110635963Y-109605135D01*
X110097299Y-110143799D01*
X109932552Y-110390361D01*
X109874700Y-110681200D01*
X109874700Y-116800300D01*
X109932552Y-117091139D01*
X110097299Y-117337701D01*
X110677019Y-117917421D01*
X110406120Y-118322849D01*
X110296887Y-118872000D01*
X110406120Y-119421151D01*
X110717189Y-119886698D01*
X111099275Y-120142000D01*
X110717189Y-120397302D01*
X110406120Y-120862849D01*
X110296887Y-121412000D01*
X110406120Y-121961151D01*
X110672813Y-122360285D01*
X106142599Y-126890499D01*
X105977852Y-127137061D01*
X105920000Y-127427900D01*
X105920000Y-127819005D01*
X105665302Y-127989189D01*
X105354233Y-128454736D01*
X105245000Y-129003887D01*
X104642000Y-129003887D01*
X104642000Y-119156187D01*
X105244752Y-119156187D01*
X105462757Y-119683800D01*
X105866077Y-120087824D01*
X106393309Y-120306750D01*
X106964187Y-120307248D01*
X107491800Y-120089243D01*
X107895824Y-119685923D01*
X108114750Y-119158691D01*
X108115248Y-118587813D01*
X107897243Y-118060200D01*
X107493923Y-117656176D01*
X106966691Y-117437250D01*
X106395813Y-117436752D01*
X105868200Y-117654757D01*
X105464176Y-118058077D01*
X105245250Y-118585309D01*
X105244752Y-119156187D01*
X104642000Y-119156187D01*
X104642000Y-114095991D01*
X105652735Y-114095991D01*
X105885932Y-114660371D01*
X106317357Y-115092551D01*
X106881330Y-115326733D01*
X107491991Y-115327265D01*
X108056371Y-115094068D01*
X108488551Y-114662643D01*
X108722733Y-114098670D01*
X108723265Y-113488009D01*
X108490068Y-112923629D01*
X108312908Y-112746159D01*
X108447699Y-112690327D01*
X108626327Y-112511698D01*
X108723000Y-112278309D01*
X108723000Y-111537750D01*
X108564250Y-111379000D01*
X107315000Y-111379000D01*
X107315000Y-111399000D01*
X107061000Y-111399000D01*
X107061000Y-111379000D01*
X105811750Y-111379000D01*
X105653000Y-111537750D01*
X105653000Y-112278309D01*
X105749673Y-112511698D01*
X105928301Y-112690327D01*
X106062994Y-112746119D01*
X105887449Y-112921357D01*
X105653267Y-113485330D01*
X105652735Y-114095991D01*
X104642000Y-114095991D01*
X104642000Y-110225691D01*
X105653000Y-110225691D01*
X105653000Y-110966250D01*
X105811750Y-111125000D01*
X107061000Y-111125000D01*
X107061000Y-109875750D01*
X107315000Y-109875750D01*
X107315000Y-111125000D01*
X108564250Y-111125000D01*
X108723000Y-110966250D01*
X108723000Y-110225691D01*
X108626327Y-109992302D01*
X108447699Y-109813673D01*
X108214310Y-109717000D01*
X107473750Y-109717000D01*
X107315000Y-109875750D01*
X107061000Y-109875750D01*
X106902250Y-109717000D01*
X106161690Y-109717000D01*
X105928301Y-109813673D01*
X105749673Y-109992302D01*
X105653000Y-110225691D01*
X104642000Y-110225691D01*
X104642000Y-106457750D01*
X105653000Y-106457750D01*
X105653000Y-107198309D01*
X105749673Y-107431698D01*
X105928301Y-107610327D01*
X106161690Y-107707000D01*
X106902250Y-107707000D01*
X107061000Y-107548250D01*
X107061000Y-106299000D01*
X107315000Y-106299000D01*
X107315000Y-107548250D01*
X107473750Y-107707000D01*
X108214310Y-107707000D01*
X108447699Y-107610327D01*
X108626327Y-107431698D01*
X108723000Y-107198309D01*
X108723000Y-106457750D01*
X108564250Y-106299000D01*
X107315000Y-106299000D01*
X107061000Y-106299000D01*
X105811750Y-106299000D01*
X105653000Y-106457750D01*
X104642000Y-106457750D01*
X104642000Y-103935991D01*
X105652735Y-103935991D01*
X105885932Y-104500371D01*
X106063092Y-104677841D01*
X105928301Y-104733673D01*
X105749673Y-104912302D01*
X105653000Y-105145691D01*
X105653000Y-105886250D01*
X105811750Y-106045000D01*
X107061000Y-106045000D01*
X107061000Y-106025000D01*
X107315000Y-106025000D01*
X107315000Y-106045000D01*
X108564250Y-106045000D01*
X108723000Y-105886250D01*
X108723000Y-105145691D01*
X108626327Y-104912302D01*
X108447699Y-104733673D01*
X108313006Y-104677881D01*
X108488551Y-104502643D01*
X108722733Y-103938670D01*
X108723265Y-103328009D01*
X108490068Y-102763629D01*
X108058643Y-102331449D01*
X107494670Y-102097267D01*
X106884009Y-102096735D01*
X106319629Y-102329932D01*
X105887449Y-102761357D01*
X105653267Y-103325330D01*
X105652735Y-103935991D01*
X104642000Y-103935991D01*
X104642000Y-98836187D01*
X105244752Y-98836187D01*
X105462757Y-99363800D01*
X105866077Y-99767824D01*
X106393309Y-99986750D01*
X106964187Y-99987248D01*
X107491800Y-99769243D01*
X107895824Y-99365923D01*
X108114750Y-98838691D01*
X108115248Y-98267813D01*
X107897243Y-97740200D01*
X107493923Y-97336176D01*
X106966691Y-97117250D01*
X106395813Y-97116752D01*
X105868200Y-97334757D01*
X105464176Y-97738077D01*
X105245250Y-98265309D01*
X105244752Y-98836187D01*
X104642000Y-98836187D01*
X104642000Y-93472000D01*
X110296887Y-93472000D01*
X110406120Y-94021151D01*
X110717189Y-94486698D01*
X111099275Y-94742000D01*
X110717189Y-94997302D01*
X110406120Y-95462849D01*
X110296887Y-96012000D01*
X110406120Y-96561151D01*
X110717189Y-97026698D01*
X111121703Y-97296986D01*
X110904866Y-97399611D01*
X110528959Y-97814577D01*
X110368096Y-98202961D01*
X110490085Y-98425000D01*
X111633000Y-98425000D01*
X111633000Y-98405000D01*
X111887000Y-98405000D01*
X111887000Y-98425000D01*
X113029915Y-98425000D01*
X113151904Y-98202961D01*
X112991041Y-97814577D01*
X112615134Y-97399611D01*
X112398297Y-97296986D01*
X112802811Y-97026698D01*
X113113880Y-96561151D01*
X113223113Y-96012000D01*
X113113880Y-95462849D01*
X112802811Y-94997302D01*
X112420725Y-94742000D01*
X112802811Y-94486698D01*
X113113880Y-94021151D01*
X113223113Y-93472000D01*
X113113880Y-92922849D01*
X112802811Y-92457302D01*
X112658535Y-92360899D01*
X112795317Y-92335162D01*
X113011441Y-92196090D01*
X113156431Y-91983890D01*
X113207440Y-91732000D01*
X113207440Y-90132000D01*
X113163162Y-89896683D01*
X113024090Y-89680559D01*
X112811890Y-89535569D01*
X112560000Y-89484560D01*
X110960000Y-89484560D01*
X110724683Y-89528838D01*
X110508559Y-89667910D01*
X110363569Y-89880110D01*
X110312560Y-90132000D01*
X110312560Y-91732000D01*
X110356838Y-91967317D01*
X110495910Y-92183441D01*
X110708110Y-92328431D01*
X110863089Y-92359815D01*
X110717189Y-92457302D01*
X110406120Y-92922849D01*
X110296887Y-93472000D01*
X104642000Y-93472000D01*
X104642000Y-88363887D01*
X105245000Y-88363887D01*
X105245000Y-88420113D01*
X105354233Y-88969264D01*
X105665302Y-89434811D01*
X106130849Y-89745880D01*
X106680000Y-89855113D01*
X107229151Y-89745880D01*
X107694698Y-89434811D01*
X108005767Y-88969264D01*
X108115000Y-88420113D01*
X108115000Y-88363887D01*
X108005767Y-87814736D01*
X107694698Y-87349189D01*
X107229151Y-87038120D01*
X106680000Y-86928887D01*
X106130849Y-87038120D01*
X105665302Y-87349189D01*
X105354233Y-87814736D01*
X105245000Y-88363887D01*
X104642000Y-88363887D01*
X104642000Y-85042000D01*
X168222000Y-85042000D01*
X168222000Y-133622000D01*
G36*
X125536887Y-101092000D02*
X125646120Y-101641151D01*
X125910450Y-102036748D01*
X118983000Y-108964198D01*
X118983000Y-108838998D01*
X118816732Y-108838998D01*
X118941462Y-108648391D01*
X118937592Y-108610719D01*
X118711080Y-108182526D01*
X118337947Y-107873610D01*
X117875000Y-107731000D01*
X117475000Y-107731000D01*
X117475000Y-108839000D01*
X117495000Y-108839000D01*
X117495000Y-109093000D01*
X117475000Y-109093000D01*
X117475000Y-109113000D01*
X117221000Y-109113000D01*
X117221000Y-109093000D01*
X115879269Y-109093000D01*
X115754538Y-109283609D01*
X115758408Y-109321281D01*
X115782434Y-109366700D01*
X114010600Y-109366700D01*
X113719761Y-109424552D01*
X113473199Y-109589299D01*
X112811777Y-110250721D01*
X112802811Y-110237302D01*
X112420725Y-109982000D01*
X112802811Y-109726698D01*
X113113880Y-109261151D01*
X113223113Y-108712000D01*
X113210461Y-108648391D01*
X115754538Y-108648391D01*
X115879269Y-108839000D01*
X117221000Y-108839000D01*
X117221000Y-107731000D01*
X116821000Y-107731000D01*
X116358053Y-107873610D01*
X115984920Y-108182526D01*
X115758408Y-108610719D01*
X115754538Y-108648391D01*
X113210461Y-108648391D01*
X113113880Y-108162849D01*
X112802811Y-107697302D01*
X112420725Y-107442000D01*
X112802811Y-107186698D01*
X112986437Y-106911882D01*
X113176139Y-106874148D01*
X113422701Y-106709401D01*
X114047502Y-106084600D01*
X115748877Y-106084600D01*
X115680968Y-106426000D01*
X115774977Y-106898614D01*
X116042691Y-107299277D01*
X116443354Y-107566991D01*
X116915968Y-107661000D01*
X117780032Y-107661000D01*
X118252646Y-107566991D01*
X118653309Y-107299277D01*
X118921023Y-106898614D01*
X119015032Y-106426000D01*
X118947123Y-106084600D01*
X119164300Y-106084600D01*
X119455139Y-106026748D01*
X119701701Y-105862001D01*
X124981702Y-100582000D01*
X125638332Y-100582000D01*
X125536887Y-101092000D01*
X125536887Y-101092000D01*
G37*
X125536887Y-101092000D02*
X125646120Y-101641151D01*
X125910450Y-102036748D01*
X118983000Y-108964198D01*
X118983000Y-108838998D01*
X118816732Y-108838998D01*
X118941462Y-108648391D01*
X118937592Y-108610719D01*
X118711080Y-108182526D01*
X118337947Y-107873610D01*
X117875000Y-107731000D01*
X117475000Y-107731000D01*
X117475000Y-108839000D01*
X117495000Y-108839000D01*
X117495000Y-109093000D01*
X117475000Y-109093000D01*
X117475000Y-109113000D01*
X117221000Y-109113000D01*
X117221000Y-109093000D01*
X115879269Y-109093000D01*
X115754538Y-109283609D01*
X115758408Y-109321281D01*
X115782434Y-109366700D01*
X114010600Y-109366700D01*
X113719761Y-109424552D01*
X113473199Y-109589299D01*
X112811777Y-110250721D01*
X112802811Y-110237302D01*
X112420725Y-109982000D01*
X112802811Y-109726698D01*
X113113880Y-109261151D01*
X113223113Y-108712000D01*
X113210461Y-108648391D01*
X115754538Y-108648391D01*
X115879269Y-108839000D01*
X117221000Y-108839000D01*
X117221000Y-107731000D01*
X116821000Y-107731000D01*
X116358053Y-107873610D01*
X115984920Y-108182526D01*
X115758408Y-108610719D01*
X115754538Y-108648391D01*
X113210461Y-108648391D01*
X113113880Y-108162849D01*
X112802811Y-107697302D01*
X112420725Y-107442000D01*
X112802811Y-107186698D01*
X112986437Y-106911882D01*
X113176139Y-106874148D01*
X113422701Y-106709401D01*
X114047502Y-106084600D01*
X115748877Y-106084600D01*
X115680968Y-106426000D01*
X115774977Y-106898614D01*
X116042691Y-107299277D01*
X116443354Y-107566991D01*
X116915968Y-107661000D01*
X117780032Y-107661000D01*
X118252646Y-107566991D01*
X118653309Y-107299277D01*
X118921023Y-106898614D01*
X119015032Y-106426000D01*
X118947123Y-106084600D01*
X119164300Y-106084600D01*
X119455139Y-106026748D01*
X119701701Y-105862001D01*
X124981702Y-100582000D01*
X125638332Y-100582000D01*
X125536887Y-101092000D01*
G36*
X131119269Y-103759000D02*
X132461000Y-103759000D01*
X132461000Y-103739000D01*
X132715000Y-103739000D01*
X132715000Y-103759000D01*
X132735000Y-103759000D01*
X132735000Y-104013000D01*
X132715000Y-104013000D01*
X132715000Y-104033000D01*
X132461000Y-104033000D01*
X132461000Y-104013000D01*
X131119269Y-104013000D01*
X131016204Y-104170500D01*
X130453702Y-104170500D01*
X131018774Y-103605428D01*
X131119269Y-103759000D01*
X131119269Y-103759000D01*
G37*
X131119269Y-103759000D02*
X132461000Y-103759000D01*
X132461000Y-103739000D01*
X132715000Y-103739000D01*
X132715000Y-103759000D01*
X132735000Y-103759000D01*
X132735000Y-104013000D01*
X132715000Y-104013000D01*
X132715000Y-104033000D01*
X132461000Y-104033000D01*
X132461000Y-104013000D01*
X131119269Y-104013000D01*
X131016204Y-104170500D01*
X130453702Y-104170500D01*
X131018774Y-103605428D01*
X131119269Y-103759000D01*
G36*
X138252560Y-88684000D02*
X138296838Y-88919317D01*
X138435910Y-89135441D01*
X138648110Y-89280431D01*
X138803089Y-89311815D01*
X138657189Y-89409302D01*
X138473563Y-89684118D01*
X138283861Y-89721852D01*
X138037299Y-89886599D01*
X131401898Y-96522000D01*
X128361668Y-96522000D01*
X128463113Y-96012000D01*
X128353880Y-95462849D01*
X128042811Y-94997302D01*
X127638297Y-94727014D01*
X127855134Y-94624389D01*
X128231041Y-94209423D01*
X128391904Y-93821039D01*
X128269915Y-93599000D01*
X127127000Y-93599000D01*
X127127000Y-93619000D01*
X126873000Y-93619000D01*
X126873000Y-93599000D01*
X125730085Y-93599000D01*
X125608096Y-93821039D01*
X125768959Y-94209423D01*
X126144866Y-94624389D01*
X126361703Y-94727014D01*
X125957189Y-94997302D01*
X125646120Y-95462849D01*
X125536887Y-96012000D01*
X125638332Y-96522000D01*
X119235300Y-96522000D01*
X118944461Y-96579852D01*
X118697899Y-96744599D01*
X112811777Y-102630721D01*
X112802811Y-102617302D01*
X112420725Y-102362000D01*
X112802811Y-102106698D01*
X112986437Y-101831882D01*
X113176139Y-101794148D01*
X113422701Y-101629401D01*
X124120102Y-90932000D01*
X125536887Y-90932000D01*
X125646120Y-91481151D01*
X125957189Y-91946698D01*
X126361703Y-92216986D01*
X126144866Y-92319611D01*
X125768959Y-92734577D01*
X125608096Y-93122961D01*
X125730085Y-93345000D01*
X126873000Y-93345000D01*
X126873000Y-93325000D01*
X127127000Y-93325000D01*
X127127000Y-93345000D01*
X128269915Y-93345000D01*
X128391904Y-93122961D01*
X128231041Y-92734577D01*
X127855134Y-92319611D01*
X127638297Y-92216986D01*
X128042811Y-91946698D01*
X128353880Y-91481151D01*
X128463113Y-90932000D01*
X128353880Y-90382849D01*
X128042811Y-89917302D01*
X127577264Y-89606233D01*
X127028113Y-89497000D01*
X126971887Y-89497000D01*
X126422736Y-89606233D01*
X125957189Y-89917302D01*
X125646120Y-90382849D01*
X125536887Y-90932000D01*
X124120102Y-90932000D01*
X126408102Y-88644000D01*
X138252560Y-88644000D01*
X138252560Y-88684000D01*
X138252560Y-88684000D01*
G37*
X138252560Y-88684000D02*
X138296838Y-88919317D01*
X138435910Y-89135441D01*
X138648110Y-89280431D01*
X138803089Y-89311815D01*
X138657189Y-89409302D01*
X138473563Y-89684118D01*
X138283861Y-89721852D01*
X138037299Y-89886599D01*
X131401898Y-96522000D01*
X128361668Y-96522000D01*
X128463113Y-96012000D01*
X128353880Y-95462849D01*
X128042811Y-94997302D01*
X127638297Y-94727014D01*
X127855134Y-94624389D01*
X128231041Y-94209423D01*
X128391904Y-93821039D01*
X128269915Y-93599000D01*
X127127000Y-93599000D01*
X127127000Y-93619000D01*
X126873000Y-93619000D01*
X126873000Y-93599000D01*
X125730085Y-93599000D01*
X125608096Y-93821039D01*
X125768959Y-94209423D01*
X126144866Y-94624389D01*
X126361703Y-94727014D01*
X125957189Y-94997302D01*
X125646120Y-95462849D01*
X125536887Y-96012000D01*
X125638332Y-96522000D01*
X119235300Y-96522000D01*
X118944461Y-96579852D01*
X118697899Y-96744599D01*
X112811777Y-102630721D01*
X112802811Y-102617302D01*
X112420725Y-102362000D01*
X112802811Y-102106698D01*
X112986437Y-101831882D01*
X113176139Y-101794148D01*
X113422701Y-101629401D01*
X124120102Y-90932000D01*
X125536887Y-90932000D01*
X125646120Y-91481151D01*
X125957189Y-91946698D01*
X126361703Y-92216986D01*
X126144866Y-92319611D01*
X125768959Y-92734577D01*
X125608096Y-93122961D01*
X125730085Y-93345000D01*
X126873000Y-93345000D01*
X126873000Y-93325000D01*
X127127000Y-93325000D01*
X127127000Y-93345000D01*
X128269915Y-93345000D01*
X128391904Y-93122961D01*
X128231041Y-92734577D01*
X127855134Y-92319611D01*
X127638297Y-92216986D01*
X128042811Y-91946698D01*
X128353880Y-91481151D01*
X128463113Y-90932000D01*
X128353880Y-90382849D01*
X128042811Y-89917302D01*
X127577264Y-89606233D01*
X127028113Y-89497000D01*
X126971887Y-89497000D01*
X126422736Y-89606233D01*
X125957189Y-89917302D01*
X125646120Y-90382849D01*
X125536887Y-90932000D01*
X124120102Y-90932000D01*
X126408102Y-88644000D01*
X138252560Y-88644000D01*
X138252560Y-88684000D01*
G36*
X156016887Y-95504000D02*
X156126120Y-96053151D01*
X156437189Y-96518698D01*
X156819275Y-96774000D01*
X156437189Y-97029302D01*
X156126120Y-97494849D01*
X156016887Y-98044000D01*
X156126120Y-98593151D01*
X156196646Y-98698700D01*
X152294600Y-98698700D01*
X152003761Y-98756552D01*
X151757199Y-98921299D01*
X149584498Y-101094000D01*
X148681668Y-101094000D01*
X148783113Y-100584000D01*
X148673880Y-100034849D01*
X148362811Y-99569302D01*
X147958297Y-99299014D01*
X148175134Y-99196389D01*
X148551041Y-98781423D01*
X148711904Y-98393039D01*
X148589915Y-98171000D01*
X147447000Y-98171000D01*
X147447000Y-98191000D01*
X147193000Y-98191000D01*
X147193000Y-98171000D01*
X147173000Y-98171000D01*
X147173000Y-97917000D01*
X147193000Y-97917000D01*
X147193000Y-97897000D01*
X147447000Y-97897000D01*
X147447000Y-97917000D01*
X148589915Y-97917000D01*
X148711904Y-97694961D01*
X148551041Y-97306577D01*
X148175134Y-96891611D01*
X147958297Y-96788986D01*
X148362811Y-96518698D01*
X148546437Y-96243882D01*
X148736139Y-96206148D01*
X148982701Y-96041401D01*
X149885402Y-95138700D01*
X156089550Y-95138700D01*
X156016887Y-95504000D01*
X156016887Y-95504000D01*
G37*
X156016887Y-95504000D02*
X156126120Y-96053151D01*
X156437189Y-96518698D01*
X156819275Y-96774000D01*
X156437189Y-97029302D01*
X156126120Y-97494849D01*
X156016887Y-98044000D01*
X156126120Y-98593151D01*
X156196646Y-98698700D01*
X152294600Y-98698700D01*
X152003761Y-98756552D01*
X151757199Y-98921299D01*
X149584498Y-101094000D01*
X148681668Y-101094000D01*
X148783113Y-100584000D01*
X148673880Y-100034849D01*
X148362811Y-99569302D01*
X147958297Y-99299014D01*
X148175134Y-99196389D01*
X148551041Y-98781423D01*
X148711904Y-98393039D01*
X148589915Y-98171000D01*
X147447000Y-98171000D01*
X147447000Y-98191000D01*
X147193000Y-98191000D01*
X147193000Y-98171000D01*
X147173000Y-98171000D01*
X147173000Y-97917000D01*
X147193000Y-97917000D01*
X147193000Y-97897000D01*
X147447000Y-97897000D01*
X147447000Y-97917000D01*
X148589915Y-97917000D01*
X148711904Y-97694961D01*
X148551041Y-97306577D01*
X148175134Y-96891611D01*
X147958297Y-96788986D01*
X148362811Y-96518698D01*
X148546437Y-96243882D01*
X148736139Y-96206148D01*
X148982701Y-96041401D01*
X149885402Y-95138700D01*
X156089550Y-95138700D01*
X156016887Y-95504000D01*
M02*
