G04 #@! TF.FileFunction,Legend,Top*
%FSLAX46Y46*%
G04 Gerber Fmt 4.6, Leading zero omitted, Abs format (unit mm)*
G04 Created by KiCad (PCBNEW 4.0.6) date 04/12/19 16:58:46*
%MOMM*%
%LPD*%
G01*
G04 APERTURE LIST*
%ADD10C,0.100000*%
%ADD11C,0.300000*%
%ADD12C,0.200000*%
%ADD13C,0.120000*%
%ADD14C,0.150000*%
G04 APERTURE END LIST*
D10*
D11*
X137963430Y-119474143D02*
X138177716Y-119545571D01*
X138534859Y-119545571D01*
X138677716Y-119474143D01*
X138749145Y-119402714D01*
X138820573Y-119259857D01*
X138820573Y-119117000D01*
X138749145Y-118974143D01*
X138677716Y-118902714D01*
X138534859Y-118831286D01*
X138249145Y-118759857D01*
X138106287Y-118688429D01*
X138034859Y-118617000D01*
X137963430Y-118474143D01*
X137963430Y-118331286D01*
X138034859Y-118188429D01*
X138106287Y-118117000D01*
X138249145Y-118045571D01*
X138606287Y-118045571D01*
X138820573Y-118117000D01*
X139463430Y-119545571D02*
X139463430Y-118545571D01*
X139463430Y-118045571D02*
X139392001Y-118117000D01*
X139463430Y-118188429D01*
X139534858Y-118117000D01*
X139463430Y-118045571D01*
X139463430Y-118188429D01*
X140177716Y-119545571D02*
X140177716Y-118545571D01*
X140177716Y-118688429D02*
X140249144Y-118617000D01*
X140392002Y-118545571D01*
X140606287Y-118545571D01*
X140749144Y-118617000D01*
X140820573Y-118759857D01*
X140820573Y-119545571D01*
X140820573Y-118759857D02*
X140892002Y-118617000D01*
X141034859Y-118545571D01*
X141249144Y-118545571D01*
X141392002Y-118617000D01*
X141463430Y-118759857D01*
X141463430Y-119545571D01*
X142177716Y-118545571D02*
X142177716Y-120045571D01*
X142177716Y-118617000D02*
X142320573Y-118545571D01*
X142606287Y-118545571D01*
X142749144Y-118617000D01*
X142820573Y-118688429D01*
X142892002Y-118831286D01*
X142892002Y-119259857D01*
X142820573Y-119402714D01*
X142749144Y-119474143D01*
X142606287Y-119545571D01*
X142320573Y-119545571D01*
X142177716Y-119474143D01*
X143749145Y-119545571D02*
X143606287Y-119474143D01*
X143534859Y-119331286D01*
X143534859Y-118045571D01*
X144892001Y-119474143D02*
X144749144Y-119545571D01*
X144463430Y-119545571D01*
X144320573Y-119474143D01*
X144249144Y-119331286D01*
X144249144Y-118759857D01*
X144320573Y-118617000D01*
X144463430Y-118545571D01*
X144749144Y-118545571D01*
X144892001Y-118617000D01*
X144963430Y-118759857D01*
X144963430Y-118902714D01*
X144249144Y-119045571D01*
X146749144Y-119545571D02*
X146749144Y-118045571D01*
X147106287Y-118045571D01*
X147320572Y-118117000D01*
X147463430Y-118259857D01*
X147534858Y-118402714D01*
X147606287Y-118688429D01*
X147606287Y-118902714D01*
X147534858Y-119188429D01*
X147463430Y-119331286D01*
X147320572Y-119474143D01*
X147106287Y-119545571D01*
X146749144Y-119545571D01*
X149106287Y-119545571D02*
X148606287Y-118831286D01*
X148249144Y-119545571D02*
X148249144Y-118045571D01*
X148820572Y-118045571D01*
X148963430Y-118117000D01*
X149034858Y-118188429D01*
X149106287Y-118331286D01*
X149106287Y-118545571D01*
X149034858Y-118688429D01*
X148963430Y-118759857D01*
X148820572Y-118831286D01*
X148249144Y-118831286D01*
X149677715Y-119117000D02*
X150392001Y-119117000D01*
X149534858Y-119545571D02*
X150034858Y-118045571D01*
X150534858Y-119545571D01*
X151034858Y-119545571D02*
X151034858Y-118045571D01*
X151534858Y-119117000D01*
X152034858Y-118045571D01*
X152034858Y-119545571D01*
X153677715Y-118045571D02*
X154534858Y-118045571D01*
X154106287Y-119545571D02*
X154106287Y-118045571D01*
X155606286Y-119474143D02*
X155463429Y-119545571D01*
X155177715Y-119545571D01*
X155034858Y-119474143D01*
X154963429Y-119331286D01*
X154963429Y-118759857D01*
X155034858Y-118617000D01*
X155177715Y-118545571D01*
X155463429Y-118545571D01*
X155606286Y-118617000D01*
X155677715Y-118759857D01*
X155677715Y-118902714D01*
X154963429Y-119045571D01*
X156249143Y-119474143D02*
X156392000Y-119545571D01*
X156677715Y-119545571D01*
X156820572Y-119474143D01*
X156892000Y-119331286D01*
X156892000Y-119259857D01*
X156820572Y-119117000D01*
X156677715Y-119045571D01*
X156463429Y-119045571D01*
X156320572Y-118974143D01*
X156249143Y-118831286D01*
X156249143Y-118759857D01*
X156320572Y-118617000D01*
X156463429Y-118545571D01*
X156677715Y-118545571D01*
X156820572Y-118617000D01*
X157320572Y-118545571D02*
X157892001Y-118545571D01*
X157534858Y-118045571D02*
X157534858Y-119331286D01*
X157606286Y-119474143D01*
X157749144Y-119545571D01*
X157892001Y-119545571D01*
X158963429Y-119474143D02*
X158820572Y-119545571D01*
X158534858Y-119545571D01*
X158392001Y-119474143D01*
X158320572Y-119331286D01*
X158320572Y-118759857D01*
X158392001Y-118617000D01*
X158534858Y-118545571D01*
X158820572Y-118545571D01*
X158963429Y-118617000D01*
X159034858Y-118759857D01*
X159034858Y-118902714D01*
X158320572Y-119045571D01*
X159677715Y-119545571D02*
X159677715Y-118545571D01*
X159677715Y-118831286D02*
X159749143Y-118688429D01*
X159820572Y-118617000D01*
X159963429Y-118545571D01*
X160106286Y-118545571D01*
X161606286Y-118545571D02*
X161963429Y-119545571D01*
X162320571Y-118545571D01*
X163677714Y-119545571D02*
X162820571Y-119545571D01*
X163249143Y-119545571D02*
X163249143Y-118045571D01*
X163106286Y-118259857D01*
X162963428Y-118402714D01*
X162820571Y-118474143D01*
X164320571Y-119402714D02*
X164391999Y-119474143D01*
X164320571Y-119545571D01*
X164249142Y-119474143D01*
X164320571Y-119402714D01*
X164320571Y-119545571D01*
X164963428Y-118188429D02*
X165034857Y-118117000D01*
X165177714Y-118045571D01*
X165534857Y-118045571D01*
X165677714Y-118117000D01*
X165749143Y-118188429D01*
X165820571Y-118331286D01*
X165820571Y-118474143D01*
X165749143Y-118688429D01*
X164892000Y-119545571D01*
X165820571Y-119545571D01*
X138927716Y-122095571D02*
X138927716Y-120595571D01*
X138927716Y-121167000D02*
X139070573Y-121095571D01*
X139356287Y-121095571D01*
X139499144Y-121167000D01*
X139570573Y-121238429D01*
X139642002Y-121381286D01*
X139642002Y-121809857D01*
X139570573Y-121952714D01*
X139499144Y-122024143D01*
X139356287Y-122095571D01*
X139070573Y-122095571D01*
X138927716Y-122024143D01*
X140142002Y-121095571D02*
X140499145Y-122095571D01*
X140856287Y-121095571D02*
X140499145Y-122095571D01*
X140356287Y-122452714D01*
X140284859Y-122524143D01*
X140142002Y-122595571D01*
X143213430Y-122024143D02*
X143070573Y-122095571D01*
X142784859Y-122095571D01*
X142642001Y-122024143D01*
X142570573Y-121952714D01*
X142499144Y-121809857D01*
X142499144Y-121381286D01*
X142570573Y-121238429D01*
X142642001Y-121167000D01*
X142784859Y-121095571D01*
X143070573Y-121095571D01*
X143213430Y-121167000D01*
X144070573Y-122095571D02*
X143927715Y-122024143D01*
X143856287Y-121881286D01*
X143856287Y-120595571D01*
X144856287Y-122095571D02*
X144713429Y-122024143D01*
X144642001Y-121952714D01*
X144570572Y-121809857D01*
X144570572Y-121381286D01*
X144642001Y-121238429D01*
X144713429Y-121167000D01*
X144856287Y-121095571D01*
X145070572Y-121095571D01*
X145213429Y-121167000D01*
X145284858Y-121238429D01*
X145356287Y-121381286D01*
X145356287Y-121809857D01*
X145284858Y-121952714D01*
X145213429Y-122024143D01*
X145070572Y-122095571D01*
X144856287Y-122095571D01*
X146642001Y-121095571D02*
X146642001Y-122095571D01*
X145999144Y-121095571D02*
X145999144Y-121881286D01*
X146070572Y-122024143D01*
X146213430Y-122095571D01*
X146427715Y-122095571D01*
X146570572Y-122024143D01*
X146642001Y-121952714D01*
X147999144Y-122095571D02*
X147999144Y-120595571D01*
X147999144Y-122024143D02*
X147856287Y-122095571D01*
X147570573Y-122095571D01*
X147427715Y-122024143D01*
X147356287Y-121952714D01*
X147284858Y-121809857D01*
X147284858Y-121381286D01*
X147356287Y-121238429D01*
X147427715Y-121167000D01*
X147570573Y-121095571D01*
X147856287Y-121095571D01*
X147999144Y-121167000D01*
X148713430Y-122095571D02*
X148713430Y-121095571D01*
X148713430Y-121381286D02*
X148784858Y-121238429D01*
X148856287Y-121167000D01*
X148999144Y-121095571D01*
X149142001Y-121095571D01*
X150213429Y-122024143D02*
X150070572Y-122095571D01*
X149784858Y-122095571D01*
X149642001Y-122024143D01*
X149570572Y-121881286D01*
X149570572Y-121309857D01*
X149642001Y-121167000D01*
X149784858Y-121095571D01*
X150070572Y-121095571D01*
X150213429Y-121167000D01*
X150284858Y-121309857D01*
X150284858Y-121452714D01*
X149570572Y-121595571D01*
X151499143Y-122024143D02*
X151356286Y-122095571D01*
X151070572Y-122095571D01*
X150927715Y-122024143D01*
X150856286Y-121881286D01*
X150856286Y-121309857D01*
X150927715Y-121167000D01*
X151070572Y-121095571D01*
X151356286Y-121095571D01*
X151499143Y-121167000D01*
X151570572Y-121309857D01*
X151570572Y-121452714D01*
X150856286Y-121595571D01*
X153142000Y-121381286D02*
X153070572Y-121309857D01*
X152927715Y-121238429D01*
X152784857Y-121238429D01*
X152642000Y-121309857D01*
X152570572Y-121381286D01*
X152499143Y-121524143D01*
X152499143Y-121667000D01*
X152570572Y-121809857D01*
X152642000Y-121881286D01*
X152784857Y-121952714D01*
X152927715Y-121952714D01*
X153070572Y-121881286D01*
X153142000Y-121809857D01*
X153142000Y-121238429D02*
X153142000Y-121809857D01*
X153213429Y-121881286D01*
X153284857Y-121881286D01*
X153427715Y-121809857D01*
X153499143Y-121667000D01*
X153499143Y-121309857D01*
X153356286Y-121095571D01*
X153142000Y-120952714D01*
X152856286Y-120881286D01*
X152570572Y-120952714D01*
X152356286Y-121095571D01*
X152213429Y-121309857D01*
X152142000Y-121595571D01*
X152213429Y-121881286D01*
X152356286Y-122095571D01*
X152570572Y-122238429D01*
X152856286Y-122309857D01*
X153142000Y-122238429D01*
X153356286Y-122095571D01*
X154142000Y-121095571D02*
X154142000Y-122095571D01*
X154142000Y-121238429D02*
X154213428Y-121167000D01*
X154356286Y-121095571D01*
X154570571Y-121095571D01*
X154713428Y-121167000D01*
X154784857Y-121309857D01*
X154784857Y-122095571D01*
X156142000Y-122095571D02*
X156142000Y-121309857D01*
X156070571Y-121167000D01*
X155927714Y-121095571D01*
X155642000Y-121095571D01*
X155499143Y-121167000D01*
X156142000Y-122024143D02*
X155999143Y-122095571D01*
X155642000Y-122095571D01*
X155499143Y-122024143D01*
X155427714Y-121881286D01*
X155427714Y-121738429D01*
X155499143Y-121595571D01*
X155642000Y-121524143D01*
X155999143Y-121524143D01*
X156142000Y-121452714D01*
X156713429Y-121095571D02*
X157070572Y-122095571D01*
X157427714Y-121095571D01*
X158570571Y-122024143D02*
X158427714Y-122095571D01*
X158142000Y-122095571D01*
X157999143Y-122024143D01*
X157927714Y-121881286D01*
X157927714Y-121309857D01*
X157999143Y-121167000D01*
X158142000Y-121095571D01*
X158427714Y-121095571D01*
X158570571Y-121167000D01*
X158642000Y-121309857D01*
X158642000Y-121452714D01*
X157927714Y-121595571D01*
X159284857Y-122095571D02*
X159284857Y-121095571D01*
X159284857Y-121381286D02*
X159356285Y-121238429D01*
X159427714Y-121167000D01*
X159570571Y-121095571D01*
X159713428Y-121095571D01*
X160213428Y-121952714D02*
X160284856Y-122024143D01*
X160213428Y-122095571D01*
X160141999Y-122024143D01*
X160213428Y-121952714D01*
X160213428Y-122095571D01*
X161570571Y-122024143D02*
X161427714Y-122095571D01*
X161142000Y-122095571D01*
X160999142Y-122024143D01*
X160927714Y-121952714D01*
X160856285Y-121809857D01*
X160856285Y-121381286D01*
X160927714Y-121238429D01*
X160999142Y-121167000D01*
X161142000Y-121095571D01*
X161427714Y-121095571D01*
X161570571Y-121167000D01*
X162427714Y-122095571D02*
X162284856Y-122024143D01*
X162213428Y-121952714D01*
X162141999Y-121809857D01*
X162141999Y-121381286D01*
X162213428Y-121238429D01*
X162284856Y-121167000D01*
X162427714Y-121095571D01*
X162641999Y-121095571D01*
X162784856Y-121167000D01*
X162856285Y-121238429D01*
X162927714Y-121381286D01*
X162927714Y-121809857D01*
X162856285Y-121952714D01*
X162784856Y-122024143D01*
X162641999Y-122095571D01*
X162427714Y-122095571D01*
X163570571Y-122095571D02*
X163570571Y-121095571D01*
X163570571Y-121238429D02*
X163641999Y-121167000D01*
X163784857Y-121095571D01*
X163999142Y-121095571D01*
X164141999Y-121167000D01*
X164213428Y-121309857D01*
X164213428Y-122095571D01*
X164213428Y-121309857D02*
X164284857Y-121167000D01*
X164427714Y-121095571D01*
X164641999Y-121095571D01*
X164784857Y-121167000D01*
X164856285Y-121309857D01*
X164856285Y-122095571D01*
D12*
X123952000Y-132842000D02*
X123952000Y-130302000D01*
X116332000Y-132842000D02*
X123952000Y-132842000D01*
X116332000Y-130302000D02*
X116332000Y-132842000D01*
D13*
X148332000Y-132112000D02*
X148332000Y-140752000D01*
X148332000Y-123732000D02*
X148332000Y-128812000D01*
X160532000Y-132112000D02*
X160532000Y-140752000D01*
X160532000Y-123732000D02*
X160532000Y-128812000D01*
X160532000Y-140752000D02*
X148332000Y-140752000D01*
X148332000Y-123732000D02*
X160532000Y-123732000D01*
X113030000Y-92202000D02*
X113030000Y-89662000D01*
X113030000Y-89662000D02*
X110360000Y-89662000D01*
X110360000Y-92202000D02*
X110360000Y-130432000D01*
X110360000Y-86992000D02*
X110360000Y-89662000D01*
X125730000Y-89662000D02*
X128400000Y-89662000D01*
X125730000Y-89662000D02*
X125730000Y-127762000D01*
X125730000Y-127762000D02*
X128400000Y-127762000D01*
X113030000Y-92202000D02*
X110360000Y-92202000D01*
X113030000Y-92202000D02*
X113030000Y-127762000D01*
X113030000Y-127762000D02*
X110360000Y-127762000D01*
X110360000Y-130432000D02*
X128400000Y-130432000D01*
X128400000Y-130432000D02*
X128400000Y-86992000D01*
X128400000Y-86992000D02*
X110360000Y-86992000D01*
X144510000Y-86554000D02*
G75*
G02X142510000Y-86554000I-1000000J0D01*
G01*
X142510000Y-86554000D02*
X140860000Y-86554000D01*
X140860000Y-86554000D02*
X140860000Y-112074000D01*
X140860000Y-112074000D02*
X146160000Y-112074000D01*
X146160000Y-112074000D02*
X146160000Y-86554000D01*
X146160000Y-86554000D02*
X144510000Y-86554000D01*
X138370000Y-86494000D02*
X138370000Y-112134000D01*
X138370000Y-112134000D02*
X148650000Y-112134000D01*
X148650000Y-112134000D02*
X148650000Y-86494000D01*
X148650000Y-86494000D02*
X138370000Y-86494000D01*
X106128000Y-107462000D02*
X106128000Y-107252000D01*
X106128000Y-105092000D02*
X106128000Y-104361000D01*
X106128000Y-102902000D02*
X106128000Y-102342000D01*
X108248000Y-107462000D02*
X108248000Y-107252000D01*
X108248000Y-105092000D02*
X108248000Y-104361000D01*
X108248000Y-102902000D02*
X108248000Y-102342000D01*
X106128000Y-107462000D02*
X108248000Y-107462000D01*
X106128000Y-102342000D02*
X108248000Y-102342000D01*
X106128000Y-107342000D02*
X108248000Y-107342000D01*
X105370000Y-96682000D02*
X107990000Y-96682000D01*
X107990000Y-96682000D02*
X107990000Y-90262000D01*
X107990000Y-90262000D02*
X105370000Y-90262000D01*
X105370000Y-90262000D02*
X105370000Y-96682000D01*
X106680000Y-97572000D02*
X106680000Y-96682000D01*
X106680000Y-89372000D02*
X106680000Y-90262000D01*
X107990000Y-120742000D02*
X105370000Y-120742000D01*
X105370000Y-120742000D02*
X105370000Y-127162000D01*
X105370000Y-127162000D02*
X107990000Y-127162000D01*
X107990000Y-127162000D02*
X107990000Y-120742000D01*
X106680000Y-119852000D02*
X106680000Y-120742000D01*
X106680000Y-128052000D02*
X106680000Y-127162000D01*
X139192000Y-130362000D02*
X144332000Y-130362000D01*
X144332000Y-130362000D02*
X144332000Y-127702000D01*
X144332000Y-127702000D02*
X139192000Y-127702000D01*
X139192000Y-127702000D02*
X139192000Y-130362000D01*
X137922000Y-130362000D02*
X136592000Y-130362000D01*
X136592000Y-130362000D02*
X136592000Y-129032000D01*
X162290000Y-86554000D02*
G75*
G02X160290000Y-86554000I-1000000J0D01*
G01*
X160290000Y-86554000D02*
X158640000Y-86554000D01*
X158640000Y-86554000D02*
X158640000Y-109534000D01*
X158640000Y-109534000D02*
X163940000Y-109534000D01*
X163940000Y-109534000D02*
X163940000Y-86554000D01*
X163940000Y-86554000D02*
X162290000Y-86554000D01*
X156150000Y-86494000D02*
X156150000Y-109594000D01*
X156150000Y-109594000D02*
X166430000Y-109594000D01*
X166430000Y-109594000D02*
X166430000Y-86494000D01*
X166430000Y-86494000D02*
X156150000Y-86494000D01*
X108248000Y-109962000D02*
X108248000Y-110172000D01*
X108248000Y-112332000D02*
X108248000Y-113063000D01*
X108248000Y-114522000D02*
X108248000Y-115082000D01*
X106128000Y-109962000D02*
X106128000Y-110172000D01*
X106128000Y-112332000D02*
X106128000Y-113063000D01*
X106128000Y-114522000D02*
X106128000Y-115082000D01*
X108248000Y-109962000D02*
X106128000Y-109962000D01*
X108248000Y-115082000D02*
X106128000Y-115082000D01*
X108248000Y-110082000D02*
X106128000Y-110082000D01*
X163262000Y-130362000D02*
X165922000Y-130362000D01*
X163262000Y-127762000D02*
X163262000Y-130362000D01*
X165922000Y-127762000D02*
X165922000Y-130362000D01*
X163262000Y-127762000D02*
X165922000Y-127762000D01*
X163262000Y-126492000D02*
X163262000Y-125162000D01*
X163262000Y-125162000D02*
X164592000Y-125162000D01*
D14*
X115848000Y-100246000D02*
X115848000Y-130386000D01*
X115848000Y-130386000D02*
X134088000Y-130386000D01*
X134088000Y-130386000D02*
X134088000Y-100246000D01*
X134088000Y-100246000D02*
X128008000Y-100246000D01*
X128008000Y-100246000D02*
X128008000Y-100696000D01*
X128008000Y-100696000D02*
X121928001Y-100696000D01*
X121928001Y-100696000D02*
X121928001Y-100246000D01*
X121928001Y-100246000D02*
X115848000Y-100246000D01*
X152543143Y-132294381D02*
X152543143Y-133103905D01*
X152590762Y-133199143D01*
X152638381Y-133246762D01*
X152733619Y-133294381D01*
X152924096Y-133294381D01*
X153019334Y-133246762D01*
X153066953Y-133199143D01*
X153114572Y-133103905D01*
X153114572Y-132294381D01*
X153543143Y-133246762D02*
X153686000Y-133294381D01*
X153924096Y-133294381D01*
X154019334Y-133246762D01*
X154066953Y-133199143D01*
X154114572Y-133103905D01*
X154114572Y-133008667D01*
X154066953Y-132913429D01*
X154019334Y-132865810D01*
X153924096Y-132818190D01*
X153733619Y-132770571D01*
X153638381Y-132722952D01*
X153590762Y-132675333D01*
X153543143Y-132580095D01*
X153543143Y-132484857D01*
X153590762Y-132389619D01*
X153638381Y-132342000D01*
X153733619Y-132294381D01*
X153971715Y-132294381D01*
X154114572Y-132342000D01*
X154876477Y-132770571D02*
X155019334Y-132818190D01*
X155066953Y-132865810D01*
X155114572Y-132961048D01*
X155114572Y-133103905D01*
X155066953Y-133199143D01*
X155019334Y-133246762D01*
X154924096Y-133294381D01*
X154543143Y-133294381D01*
X154543143Y-132294381D01*
X154876477Y-132294381D01*
X154971715Y-132342000D01*
X155019334Y-132389619D01*
X155066953Y-132484857D01*
X155066953Y-132580095D01*
X155019334Y-132675333D01*
X154971715Y-132722952D01*
X154876477Y-132770571D01*
X154543143Y-132770571D01*
X155305048Y-133389619D02*
X156066953Y-133389619D01*
X156638382Y-132770571D02*
X156781239Y-132818190D01*
X156828858Y-132865810D01*
X156876477Y-132961048D01*
X156876477Y-133103905D01*
X156828858Y-133199143D01*
X156781239Y-133246762D01*
X156686001Y-133294381D01*
X156305048Y-133294381D01*
X156305048Y-132294381D01*
X156638382Y-132294381D01*
X156733620Y-132342000D01*
X156781239Y-132389619D01*
X156828858Y-132484857D01*
X156828858Y-132580095D01*
X156781239Y-132675333D01*
X156733620Y-132722952D01*
X156638382Y-132770571D01*
X156305048Y-132770571D01*
X129992381Y-91050857D02*
X128992381Y-91050857D01*
X129992381Y-90479428D01*
X128992381Y-90479428D01*
X129992381Y-89574666D02*
X129468571Y-89574666D01*
X129373333Y-89622285D01*
X129325714Y-89717523D01*
X129325714Y-89908000D01*
X129373333Y-90003238D01*
X129944762Y-89574666D02*
X129992381Y-89669904D01*
X129992381Y-89908000D01*
X129944762Y-90003238D01*
X129849524Y-90050857D01*
X129754286Y-90050857D01*
X129659048Y-90003238D01*
X129611429Y-89908000D01*
X129611429Y-89669904D01*
X129563810Y-89574666D01*
X129325714Y-89098476D02*
X129992381Y-89098476D01*
X129420952Y-89098476D02*
X129373333Y-89050857D01*
X129325714Y-88955619D01*
X129325714Y-88812761D01*
X129373333Y-88717523D01*
X129468571Y-88669904D01*
X129992381Y-88669904D01*
X129992381Y-88050857D02*
X129944762Y-88146095D01*
X129897143Y-88193714D01*
X129801905Y-88241333D01*
X129516190Y-88241333D01*
X129420952Y-88193714D01*
X129373333Y-88146095D01*
X129325714Y-88050857D01*
X129325714Y-87907999D01*
X129373333Y-87812761D01*
X129420952Y-87765142D01*
X129516190Y-87717523D01*
X129801905Y-87717523D01*
X129897143Y-87765142D01*
X129944762Y-87812761D01*
X129992381Y-87907999D01*
X129992381Y-88050857D01*
X143962381Y-103290286D02*
X142962381Y-103290286D01*
X143962381Y-102718857D02*
X143390952Y-103147429D01*
X142962381Y-102718857D02*
X143533810Y-103290286D01*
X143962381Y-102290286D02*
X142962381Y-102290286D01*
X143676667Y-101956952D01*
X142962381Y-101623619D01*
X143962381Y-101623619D01*
X143295714Y-100718857D02*
X143962381Y-100718857D01*
X142914762Y-100956953D02*
X143629048Y-101195048D01*
X143629048Y-100576000D01*
X143295714Y-99766476D02*
X143962381Y-99766476D01*
X142914762Y-100004572D02*
X143629048Y-100242667D01*
X143629048Y-99623619D01*
X143057619Y-99290286D02*
X143010000Y-99242667D01*
X142962381Y-99147429D01*
X142962381Y-98909333D01*
X143010000Y-98814095D01*
X143057619Y-98766476D01*
X143152857Y-98718857D01*
X143248095Y-98718857D01*
X143390952Y-98766476D01*
X143962381Y-99337905D01*
X143962381Y-98718857D01*
X142962381Y-97814095D02*
X142962381Y-98290286D01*
X143438571Y-98337905D01*
X143390952Y-98290286D01*
X143343333Y-98195048D01*
X143343333Y-97956952D01*
X143390952Y-97861714D01*
X143438571Y-97814095D01*
X143533810Y-97766476D01*
X143771905Y-97766476D01*
X143867143Y-97814095D01*
X143914762Y-97861714D01*
X143962381Y-97956952D01*
X143962381Y-98195048D01*
X143914762Y-98290286D01*
X143867143Y-98337905D01*
X142962381Y-96909333D02*
X142962381Y-97099810D01*
X143010000Y-97195048D01*
X143057619Y-97242667D01*
X143200476Y-97337905D01*
X143390952Y-97385524D01*
X143771905Y-97385524D01*
X143867143Y-97337905D01*
X143914762Y-97290286D01*
X143962381Y-97195048D01*
X143962381Y-97004571D01*
X143914762Y-96909333D01*
X143867143Y-96861714D01*
X143771905Y-96814095D01*
X143533810Y-96814095D01*
X143438571Y-96861714D01*
X143390952Y-96909333D01*
X143343333Y-97004571D01*
X143343333Y-97195048D01*
X143390952Y-97290286D01*
X143438571Y-97337905D01*
X143533810Y-97385524D01*
X105084571Y-106886095D02*
X105084571Y-106552761D01*
X105608381Y-106409904D02*
X105608381Y-106886095D01*
X104608381Y-106886095D01*
X104608381Y-106409904D01*
X105608381Y-105409904D02*
X105132190Y-105743238D01*
X105608381Y-105981333D02*
X104608381Y-105981333D01*
X104608381Y-105600380D01*
X104656000Y-105505142D01*
X104703619Y-105457523D01*
X104798857Y-105409904D01*
X104941714Y-105409904D01*
X105036952Y-105457523D01*
X105084571Y-105505142D01*
X105132190Y-105600380D01*
X105132190Y-105981333D01*
X105608381Y-104409904D02*
X105132190Y-104743238D01*
X105608381Y-104981333D02*
X104608381Y-104981333D01*
X104608381Y-104600380D01*
X104656000Y-104505142D01*
X104703619Y-104457523D01*
X104798857Y-104409904D01*
X104941714Y-104409904D01*
X105036952Y-104457523D01*
X105084571Y-104505142D01*
X105132190Y-104600380D01*
X105132190Y-104981333D01*
X104608381Y-103790857D02*
X104608381Y-103600380D01*
X104656000Y-103505142D01*
X104751238Y-103409904D01*
X104941714Y-103362285D01*
X105275048Y-103362285D01*
X105465524Y-103409904D01*
X105560762Y-103505142D01*
X105608381Y-103600380D01*
X105608381Y-103790857D01*
X105560762Y-103886095D01*
X105465524Y-103981333D01*
X105275048Y-104028952D01*
X104941714Y-104028952D01*
X104751238Y-103981333D01*
X104656000Y-103886095D01*
X104608381Y-103790857D01*
X105608381Y-102362285D02*
X105132190Y-102695619D01*
X105608381Y-102933714D02*
X104608381Y-102933714D01*
X104608381Y-102552761D01*
X104656000Y-102457523D01*
X104703619Y-102409904D01*
X104798857Y-102362285D01*
X104941714Y-102362285D01*
X105036952Y-102409904D01*
X105084571Y-102457523D01*
X105132190Y-102552761D01*
X105132190Y-102933714D01*
X106386381Y-94757714D02*
X106386381Y-94138666D01*
X106767333Y-94472000D01*
X106767333Y-94329142D01*
X106814952Y-94233904D01*
X106862571Y-94186285D01*
X106957810Y-94138666D01*
X107195905Y-94138666D01*
X107291143Y-94186285D01*
X107338762Y-94233904D01*
X107386381Y-94329142D01*
X107386381Y-94614857D01*
X107338762Y-94710095D01*
X107291143Y-94757714D01*
X106386381Y-93805333D02*
X106386381Y-93186285D01*
X106767333Y-93519619D01*
X106767333Y-93376761D01*
X106814952Y-93281523D01*
X106862571Y-93233904D01*
X106957810Y-93186285D01*
X107195905Y-93186285D01*
X107291143Y-93233904D01*
X107338762Y-93281523D01*
X107386381Y-93376761D01*
X107386381Y-93662476D01*
X107338762Y-93757714D01*
X107291143Y-93805333D01*
X106386381Y-92567238D02*
X106386381Y-92471999D01*
X106434000Y-92376761D01*
X106481619Y-92329142D01*
X106576857Y-92281523D01*
X106767333Y-92233904D01*
X107005429Y-92233904D01*
X107195905Y-92281523D01*
X107291143Y-92329142D01*
X107338762Y-92376761D01*
X107386381Y-92471999D01*
X107386381Y-92567238D01*
X107338762Y-92662476D01*
X107291143Y-92710095D01*
X107195905Y-92757714D01*
X107005429Y-92805333D01*
X106767333Y-92805333D01*
X106576857Y-92757714D01*
X106481619Y-92710095D01*
X106434000Y-92662476D01*
X106386381Y-92567238D01*
X106132381Y-125237714D02*
X106132381Y-124618666D01*
X106513333Y-124952000D01*
X106513333Y-124809142D01*
X106560952Y-124713904D01*
X106608571Y-124666285D01*
X106703810Y-124618666D01*
X106941905Y-124618666D01*
X107037143Y-124666285D01*
X107084762Y-124713904D01*
X107132381Y-124809142D01*
X107132381Y-125094857D01*
X107084762Y-125190095D01*
X107037143Y-125237714D01*
X106132381Y-124285333D02*
X106132381Y-123666285D01*
X106513333Y-123999619D01*
X106513333Y-123856761D01*
X106560952Y-123761523D01*
X106608571Y-123713904D01*
X106703810Y-123666285D01*
X106941905Y-123666285D01*
X107037143Y-123713904D01*
X107084762Y-123761523D01*
X107132381Y-123856761D01*
X107132381Y-124142476D01*
X107084762Y-124237714D01*
X107037143Y-124285333D01*
X106132381Y-123047238D02*
X106132381Y-122951999D01*
X106180000Y-122856761D01*
X106227619Y-122809142D01*
X106322857Y-122761523D01*
X106513333Y-122713904D01*
X106751429Y-122713904D01*
X106941905Y-122761523D01*
X107037143Y-122809142D01*
X107084762Y-122856761D01*
X107132381Y-122951999D01*
X107132381Y-123047238D01*
X107084762Y-123142476D01*
X107037143Y-123190095D01*
X106941905Y-123237714D01*
X106751429Y-123285333D01*
X106513333Y-123285333D01*
X106322857Y-123237714D01*
X106227619Y-123190095D01*
X106180000Y-123142476D01*
X106132381Y-123047238D01*
X137366762Y-132230762D02*
X137509619Y-132278381D01*
X137747715Y-132278381D01*
X137842953Y-132230762D01*
X137890572Y-132183143D01*
X137938191Y-132087905D01*
X137938191Y-131992667D01*
X137890572Y-131897429D01*
X137842953Y-131849810D01*
X137747715Y-131802190D01*
X137557238Y-131754571D01*
X137462000Y-131706952D01*
X137414381Y-131659333D01*
X137366762Y-131564095D01*
X137366762Y-131468857D01*
X137414381Y-131373619D01*
X137462000Y-131326000D01*
X137557238Y-131278381D01*
X137795334Y-131278381D01*
X137938191Y-131326000D01*
X138271524Y-131278381D02*
X138509619Y-132278381D01*
X138700096Y-131564095D01*
X138890572Y-132278381D01*
X139128667Y-131278381D01*
X139271524Y-132373619D02*
X140033429Y-132373619D01*
X140223905Y-132230762D02*
X140366762Y-132278381D01*
X140604858Y-132278381D01*
X140700096Y-132230762D01*
X140747715Y-132183143D01*
X140795334Y-132087905D01*
X140795334Y-131992667D01*
X140747715Y-131897429D01*
X140700096Y-131849810D01*
X140604858Y-131802190D01*
X140414381Y-131754571D01*
X140319143Y-131706952D01*
X140271524Y-131659333D01*
X140223905Y-131564095D01*
X140223905Y-131468857D01*
X140271524Y-131373619D01*
X140319143Y-131326000D01*
X140414381Y-131278381D01*
X140652477Y-131278381D01*
X140795334Y-131326000D01*
X141223905Y-132278381D02*
X141223905Y-131278381D01*
X141604858Y-131278381D01*
X141700096Y-131326000D01*
X141747715Y-131373619D01*
X141795334Y-131468857D01*
X141795334Y-131611714D01*
X141747715Y-131706952D01*
X141700096Y-131754571D01*
X141604858Y-131802190D01*
X141223905Y-131802190D01*
X142223905Y-132278381D02*
X142223905Y-131278381D01*
X142462000Y-131278381D01*
X142604858Y-131326000D01*
X142700096Y-131421238D01*
X142747715Y-131516476D01*
X142795334Y-131706952D01*
X142795334Y-131849810D01*
X142747715Y-132040286D01*
X142700096Y-132135524D01*
X142604858Y-132230762D01*
X142462000Y-132278381D01*
X142223905Y-132278381D01*
X143081048Y-131278381D02*
X143652477Y-131278381D01*
X143366762Y-132278381D02*
X143366762Y-131278381D01*
X161075714Y-99790095D02*
X161742381Y-99790095D01*
X160694762Y-100028191D02*
X161409048Y-100266286D01*
X161409048Y-99647238D01*
X161075714Y-98837714D02*
X161742381Y-98837714D01*
X160694762Y-99075810D02*
X161409048Y-99313905D01*
X161409048Y-98694857D01*
X160742381Y-97885333D02*
X160742381Y-98075810D01*
X160790000Y-98171048D01*
X160837619Y-98218667D01*
X160980476Y-98313905D01*
X161170952Y-98361524D01*
X161551905Y-98361524D01*
X161647143Y-98313905D01*
X161694762Y-98266286D01*
X161742381Y-98171048D01*
X161742381Y-97980571D01*
X161694762Y-97885333D01*
X161647143Y-97837714D01*
X161551905Y-97790095D01*
X161313810Y-97790095D01*
X161218571Y-97837714D01*
X161170952Y-97885333D01*
X161123333Y-97980571D01*
X161123333Y-98171048D01*
X161170952Y-98266286D01*
X161218571Y-98313905D01*
X161313810Y-98361524D01*
X161075714Y-96932952D02*
X161742381Y-96932952D01*
X160694762Y-97171048D02*
X161409048Y-97409143D01*
X161409048Y-96790095D01*
X105294667Y-116474381D02*
X105294667Y-115998190D01*
X105580381Y-116569619D02*
X104580381Y-116236286D01*
X105580381Y-115902952D01*
X105485143Y-114998190D02*
X105532762Y-115045809D01*
X105580381Y-115188666D01*
X105580381Y-115283904D01*
X105532762Y-115426762D01*
X105437524Y-115522000D01*
X105342286Y-115569619D01*
X105151810Y-115617238D01*
X105008952Y-115617238D01*
X104818476Y-115569619D01*
X104723238Y-115522000D01*
X104628000Y-115426762D01*
X104580381Y-115283904D01*
X104580381Y-115188666D01*
X104628000Y-115045809D01*
X104675619Y-114998190D01*
X104580381Y-114712476D02*
X104580381Y-114141047D01*
X105580381Y-114426762D02*
X104580381Y-114426762D01*
X105580381Y-113807714D02*
X104580381Y-113807714D01*
X104580381Y-113141048D02*
X104580381Y-112950571D01*
X104628000Y-112855333D01*
X104723238Y-112760095D01*
X104913714Y-112712476D01*
X105247048Y-112712476D01*
X105437524Y-112760095D01*
X105532762Y-112855333D01*
X105580381Y-112950571D01*
X105580381Y-113141048D01*
X105532762Y-113236286D01*
X105437524Y-113331524D01*
X105247048Y-113379143D01*
X104913714Y-113379143D01*
X104723238Y-113331524D01*
X104628000Y-113236286D01*
X104580381Y-113141048D01*
X105580381Y-112283905D02*
X104580381Y-112283905D01*
X105580381Y-111712476D01*
X104580381Y-111712476D01*
X104532762Y-110522000D02*
X105818476Y-111379143D01*
X104580381Y-109998191D02*
X104580381Y-109807714D01*
X104628000Y-109712476D01*
X104723238Y-109617238D01*
X104913714Y-109569619D01*
X105247048Y-109569619D01*
X105437524Y-109617238D01*
X105532762Y-109712476D01*
X105580381Y-109807714D01*
X105580381Y-109998191D01*
X105532762Y-110093429D01*
X105437524Y-110188667D01*
X105247048Y-110236286D01*
X104913714Y-110236286D01*
X104723238Y-110188667D01*
X104628000Y-110093429D01*
X104580381Y-109998191D01*
X105580381Y-109141048D02*
X104580381Y-109141048D01*
X105580381Y-108569619D02*
X105008952Y-108998191D01*
X104580381Y-108569619D02*
X105151810Y-109141048D01*
X167489143Y-131785809D02*
X167536762Y-131833428D01*
X167584381Y-131976285D01*
X167584381Y-132071523D01*
X167536762Y-132214381D01*
X167441524Y-132309619D01*
X167346286Y-132357238D01*
X167155810Y-132404857D01*
X167012952Y-132404857D01*
X166822476Y-132357238D01*
X166727238Y-132309619D01*
X166632000Y-132214381D01*
X166584381Y-132071523D01*
X166584381Y-131976285D01*
X166632000Y-131833428D01*
X166679619Y-131785809D01*
X166584381Y-131166762D02*
X166584381Y-130976285D01*
X166632000Y-130881047D01*
X166727238Y-130785809D01*
X166917714Y-130738190D01*
X167251048Y-130738190D01*
X167441524Y-130785809D01*
X167536762Y-130881047D01*
X167584381Y-130976285D01*
X167584381Y-131166762D01*
X167536762Y-131262000D01*
X167441524Y-131357238D01*
X167251048Y-131404857D01*
X166917714Y-131404857D01*
X166727238Y-131357238D01*
X166632000Y-131262000D01*
X166584381Y-131166762D01*
X167584381Y-130309619D02*
X166584381Y-130309619D01*
X167584381Y-129738190D01*
X166584381Y-129738190D01*
X167584381Y-129262000D02*
X166584381Y-129262000D01*
X167584381Y-128690571D01*
X166584381Y-128690571D01*
X167679619Y-128452476D02*
X167679619Y-127690571D01*
X166584381Y-127262000D02*
X166584381Y-127166761D01*
X166632000Y-127071523D01*
X166679619Y-127023904D01*
X166774857Y-126976285D01*
X166965333Y-126928666D01*
X167203429Y-126928666D01*
X167393905Y-126976285D01*
X167489143Y-127023904D01*
X167536762Y-127071523D01*
X167584381Y-127166761D01*
X167584381Y-127262000D01*
X167536762Y-127357238D01*
X167489143Y-127404857D01*
X167393905Y-127452476D01*
X167203429Y-127500095D01*
X166965333Y-127500095D01*
X166774857Y-127452476D01*
X166679619Y-127404857D01*
X166632000Y-127357238D01*
X166584381Y-127262000D01*
X167584381Y-125976285D02*
X167584381Y-126547714D01*
X167584381Y-126262000D02*
X166584381Y-126262000D01*
X166727238Y-126357238D01*
X166822476Y-126452476D01*
X166870095Y-126547714D01*
X166584381Y-125642952D02*
X167584381Y-124976285D01*
X166584381Y-124976285D02*
X167584381Y-125642952D01*
X166584381Y-124404857D02*
X166584381Y-124309618D01*
X166632000Y-124214380D01*
X166679619Y-124166761D01*
X166774857Y-124119142D01*
X166965333Y-124071523D01*
X167203429Y-124071523D01*
X167393905Y-124119142D01*
X167489143Y-124166761D01*
X167536762Y-124214380D01*
X167584381Y-124309618D01*
X167584381Y-124404857D01*
X167536762Y-124500095D01*
X167489143Y-124547714D01*
X167393905Y-124595333D01*
X167203429Y-124642952D01*
X166965333Y-124642952D01*
X166774857Y-124595333D01*
X166679619Y-124547714D01*
X166632000Y-124500095D01*
X166584381Y-124404857D01*
X166679619Y-123690571D02*
X166632000Y-123642952D01*
X166584381Y-123547714D01*
X166584381Y-123309618D01*
X166632000Y-123214380D01*
X166679619Y-123166761D01*
X166774857Y-123119142D01*
X166870095Y-123119142D01*
X167012952Y-123166761D01*
X167584381Y-123738190D01*
X167584381Y-123119142D01*
X124053714Y-98388857D02*
X124053714Y-99360286D01*
X124110857Y-99474571D01*
X124168000Y-99531714D01*
X124282286Y-99588857D01*
X124510857Y-99588857D01*
X124625143Y-99531714D01*
X124682286Y-99474571D01*
X124739429Y-99360286D01*
X124739429Y-98388857D01*
X125825143Y-98788857D02*
X125825143Y-99588857D01*
X125539429Y-98331714D02*
X125253714Y-99188857D01*
X125996572Y-99188857D01*
M02*
